<?xml version="1.0" encoding="UTF-8" standalone="no"?>
<!DOCTYPE svg PUBLIC "-//W3C//DTD SVG 1.1//EN" "http://www.w3.org/Graphics/SVG/1.1/DTD/svg11.dtd">
<svg width="100%" height="100%" viewBox="0 0 1260 378" version="1.1" xmlns="http://www.w3.org/2000/svg" xmlns:xlink="http://www.w3.org/1999/xlink" xml:space="preserve" xmlns:serif="http://www.serif.com/" style="fill-rule:evenodd;clip-rule:evenodd;">
    <rect x="0" y="0" width="1" height="1" style="fill:none;"/>
    <g>
        <path d="M52.77,223.56L152.15,223.56" style="fill:none;fill-rule:nonzero;stroke:rgb(118,118,118);stroke-opacity:0.75;stroke-width:0.32px;stroke-dasharray:4,4;"/>
        <path d="M81.76,135.2L81.76,84.77" style="fill:none;fill-rule:nonzero;stroke:rgb(204,51,17);stroke-width:1.71px;"/>
        <path d="M81.76,153.01L81.76,202.41" style="fill:none;fill-rule:nonzero;stroke:rgb(204,51,17);stroke-width:1.71px;"/>
        <circle cx="81.76" cy="144.06" r="1.21" style="fill:rgb(204,51,17);stroke:rgb(204,51,17);stroke-width:0.71px;"/>
        <path d="M102.46,214.64L102.46,174.89" style="fill:none;fill-rule:nonzero;stroke:rgb(238,119,51);stroke-width:1.71px;"/>
        <path d="M102.46,232.66L102.46,270.93" style="fill:none;fill-rule:nonzero;stroke:rgb(238,119,51);stroke-width:1.71px;"/>
        <circle cx="102.46" cy="223.77" r="1.21" style="fill:rgb(238,119,51);stroke:rgb(238,119,51);stroke-width:0.71px;"/>
        <path d="M123.17,214.09L123.17,169.21" style="fill:none;fill-rule:nonzero;stroke:rgb(51,187,238);stroke-width:1.71px;"/>
        <path d="M123.17,231.87L123.17,272.32" style="fill:none;fill-rule:nonzero;stroke:rgb(51,187,238);stroke-width:1.71px;"/>
        <circle cx="123.17" cy="223.11" r="1.21" style="fill:rgb(51,187,238);stroke:rgb(51,187,238);stroke-width:0.71px;"/>
    </g>
    <g>
        <path d="M215.07,166.99L314.44,166.99" style="fill:none;fill-rule:nonzero;stroke:rgb(118,118,118);stroke-opacity:0.75;stroke-width:0.32px;stroke-dasharray:4,4;"/>
        <path d="M244.05,192.11L244.05,134.29" style="fill:none;fill-rule:nonzero;stroke:rgb(204,51,17);stroke-width:1.71px;"/>
        <path d="M244.05,216.74L244.05,268.91" style="fill:none;fill-rule:nonzero;stroke:rgb(204,51,17);stroke-width:1.71px;"/>
        <circle cx="244.05" cy="204.35" r="1.21" style="fill:rgb(204,51,17);stroke:rgb(204,51,17);stroke-width:0.71px;"/>
        <path d="M264.75,154.95L264.75,92.97" style="fill:none;fill-rule:nonzero;stroke:rgb(238,119,51);stroke-width:1.71px;"/>
        <path d="M264.75,179.14L264.75,235" style="fill:none;fill-rule:nonzero;stroke:rgb(238,119,51);stroke-width:1.71px;"/>
        <circle cx="264.75" cy="166.99" r="1.21" style="fill:rgb(238,119,51);stroke:rgb(238,119,51);stroke-width:0.71px;"/>
        <path d="M285.46,154.87L285.46,88.79" style="fill:none;fill-rule:nonzero;stroke:rgb(51,187,238);stroke-width:1.71px;"/>
        <path d="M285.46,178.56L285.46,254.81" style="fill:none;fill-rule:nonzero;stroke:rgb(51,187,238);stroke-width:1.71px;"/>
        <circle cx="285.46" cy="166.81" r="1.21" style="fill:rgb(51,187,238);stroke:rgb(51,187,238);stroke-width:0.71px;"/>
    </g>
    <g>
        <path d="M381.02,175.85L480.4,175.85" style="fill:none;fill-rule:nonzero;stroke:rgb(118,118,118);stroke-opacity:0.75;stroke-width:0.32px;stroke-dasharray:4,4;"/>
        <path d="M410.01,180.29L410.01,126.69" style="fill:none;fill-rule:nonzero;stroke:rgb(204,51,17);stroke-width:1.71px;"/>
        <path d="M410.01,201.73L410.01,254.41" style="fill:none;fill-rule:nonzero;stroke:rgb(204,51,17);stroke-width:1.71px;"/>
        <circle cx="410.01" cy="191.01" r="1.21" style="fill:rgb(204,51,17);stroke:rgb(204,51,17);stroke-width:0.71px;"/>
        <path d="M430.71,164.27L430.71,104.47" style="fill:none;fill-rule:nonzero;stroke:rgb(238,119,51);stroke-width:1.71px;"/>
        <path d="M430.71,186.61L430.71,246.8" style="fill:none;fill-rule:nonzero;stroke:rgb(238,119,51);stroke-width:1.71px;"/>
        <circle cx="430.71" cy="175.41" r="1.21" style="fill:rgb(238,119,51);stroke:rgb(238,119,51);stroke-width:0.71px;"/>
        <path d="M451.41,164.63L451.41,112" style="fill:none;fill-rule:nonzero;stroke:rgb(51,187,238);stroke-width:1.71px;"/>
        <path d="M451.41,186.97L451.41,232.9" style="fill:none;fill-rule:nonzero;stroke:rgb(51,187,238);stroke-width:1.71px;"/>
        <circle cx="451.41" cy="175.8" r="1.21" style="fill:rgb(51,187,238);stroke:rgb(51,187,238);stroke-width:0.71px;"/>
    </g>
    <g>
        <path d="M546.98,179.88L646.36,179.88" style="fill:none;fill-rule:nonzero;stroke:rgb(118,118,118);stroke-opacity:0.75;stroke-width:0.32px;stroke-dasharray:4,4;"/>
        <path d="M575.96,143.6L575.96,82.03" style="fill:none;fill-rule:nonzero;stroke:rgb(204,51,17);stroke-width:1.71px;"/>
        <path d="M575.96,172.16L575.96,237.32" style="fill:none;fill-rule:nonzero;stroke:rgb(204,51,17);stroke-width:1.71px;"/>
        <circle cx="575.96" cy="157.9" r="1.21" style="fill:rgb(204,51,17);stroke:rgb(204,51,17);stroke-width:0.71px;"/>
        <path d="M596.67,166.09L596.67,95.57" style="fill:none;fill-rule:nonzero;stroke:rgb(238,119,51);stroke-width:1.71px;"/>
        <path d="M596.67,194.76L596.67,256.69" style="fill:none;fill-rule:nonzero;stroke:rgb(238,119,51);stroke-width:1.71px;"/>
        <circle cx="596.67" cy="180.53" r="1.21" style="fill:rgb(238,119,51);stroke:rgb(238,119,51);stroke-width:0.71px;"/>
        <path d="M617.37,165.06L617.37,92.16" style="fill:none;fill-rule:nonzero;stroke:rgb(51,187,238);stroke-width:1.71px;"/>
        <path d="M617.37,193.89L617.37,266.1" style="fill:none;fill-rule:nonzero;stroke:rgb(51,187,238);stroke-width:1.71px;"/>
        <circle cx="617.37" cy="179.72" r="1.21" style="fill:rgb(51,187,238);stroke:rgb(51,187,238);stroke-width:0.71px;"/>
    </g>
    <g>
        <path d="M697.64,223.1L797.02,223.1" style="fill:none;fill-rule:nonzero;stroke:rgb(118,118,118);stroke-opacity:0.75;stroke-width:0.32px;stroke-dasharray:4,4;"/>
        <path d="M726.63,138.12L726.63,70.67" style="fill:none;fill-rule:nonzero;stroke:rgb(204,51,17);stroke-width:1.71px;"/>
        <path d="M726.63,162.95L726.63,225.34" style="fill:none;fill-rule:nonzero;stroke:rgb(204,51,17);stroke-width:1.71px;"/>
        <circle cx="726.63" cy="150.59" r="1.21" style="fill:rgb(204,51,17);stroke:rgb(204,51,17);stroke-width:0.71px;"/>
        <path d="M747.33,210.93L747.33,133.66" style="fill:none;fill-rule:nonzero;stroke:rgb(238,119,51);stroke-width:1.71px;"/>
        <path d="M747.33,235.58L747.33,288.05" style="fill:none;fill-rule:nonzero;stroke:rgb(238,119,51);stroke-width:1.71px;"/>
        <circle cx="747.33" cy="223.49" r="1.21" style="fill:rgb(238,119,51);stroke:rgb(238,119,51);stroke-width:0.71px;"/>
        <path d="M768.04,210.84L768.04,148.82" style="fill:none;fill-rule:nonzero;stroke:rgb(51,187,238);stroke-width:1.71px;"/>
        <path d="M768.04,235.23L768.04,290.16" style="fill:none;fill-rule:nonzero;stroke:rgb(51,187,238);stroke-width:1.71px;"/>
        <circle cx="768.04" cy="222.99" r="1.21" style="fill:rgb(51,187,238);stroke:rgb(51,187,238);stroke-width:0.71px;"/>
    </g>
    <g>
        <path d="M848.31,167.6L947.68,167.6" style="fill:none;fill-rule:nonzero;stroke:rgb(118,118,118);stroke-opacity:0.75;stroke-width:0.32px;stroke-dasharray:4,4;"/>
        <path d="M877.29,162.98L877.29,115.83" style="fill:none;fill-rule:nonzero;stroke:rgb(204,51,17);stroke-width:1.71px;"/>
        <path d="M877.29,180.62L877.29,216.54" style="fill:none;fill-rule:nonzero;stroke:rgb(204,51,17);stroke-width:1.71px;"/>
        <circle cx="877.29" cy="171.93" r="1.21" style="fill:rgb(204,51,17);stroke:rgb(204,51,17);stroke-width:0.71px;"/>
        <path d="M898,159.46L898,104.05" style="fill:none;fill-rule:nonzero;stroke:rgb(238,119,51);stroke-width:1.71px;"/>
        <path d="M898,176.38L898,212.61" style="fill:none;fill-rule:nonzero;stroke:rgb(238,119,51);stroke-width:1.71px;"/>
        <circle cx="898" cy="168.1" r="1.21" style="fill:rgb(238,119,51);stroke:rgb(238,119,51);stroke-width:0.71px;"/>
        <path d="M918.7,159.3L918.7,113.63" style="fill:none;fill-rule:nonzero;stroke:rgb(51,187,238);stroke-width:1.71px;"/>
        <path d="M918.7,176.25L918.7,209.85" style="fill:none;fill-rule:nonzero;stroke:rgb(51,187,238);stroke-width:1.71px;"/>
        <circle cx="918.7" cy="168.15" r="1.21" style="fill:rgb(51,187,238);stroke:rgb(51,187,238);stroke-width:0.71px;"/>
    </g>
    <g>
        <path d="M998.97,123.12L1098.35,123.12" style="fill:none;fill-rule:nonzero;stroke:rgb(118,118,118);stroke-opacity:0.75;stroke-width:0.32px;stroke-dasharray:4,4;"/>
        <path d="M1027.96,193.42L1027.96,232.55" style="fill:none;fill-rule:nonzero;stroke:rgb(204,51,17);stroke-width:1.71px;"/>
        <path d="M1027.96,174.96L1027.96,136.39" style="fill:none;fill-rule:nonzero;stroke:rgb(204,51,17);stroke-width:1.71px;"/>
        <circle cx="1027.96" cy="184.15" r="1.21" style="fill:rgb(204,51,17);stroke:rgb(204,51,17);stroke-width:0.71px;"/>
        <path d="M1048.66,132.46L1048.66,168.38" style="fill:none;fill-rule:nonzero;stroke:rgb(238,119,51);stroke-width:1.71px;"/>
        <path d="M1048.66,113.95L1048.66,72.31" style="fill:none;fill-rule:nonzero;stroke:rgb(238,119,51);stroke-width:1.71px;"/>
        <circle cx="1048.66" cy="123.3" r="1.21" style="fill:rgb(238,119,51);stroke:rgb(238,119,51);stroke-width:0.71px;"/>
        <path d="M1069.36,132.35L1069.36,183.39" style="fill:none;fill-rule:nonzero;stroke:rgb(51,187,238);stroke-width:1.71px;"/>
        <path d="M1069.36,114.65L1069.36,72.4" style="fill:none;fill-rule:nonzero;stroke:rgb(51,187,238);stroke-width:1.71px;"/>
        <circle cx="1069.36" cy="123.59" r="1.21" style="fill:rgb(51,187,238);stroke:rgb(51,187,238);stroke-width:0.71px;"/>
    </g>
    <g>
        <path d="M1155.14,182.29L1254.52,182.29" style="fill:none;fill-rule:nonzero;stroke:rgb(118,118,118);stroke-opacity:0.75;stroke-width:0.32px;stroke-dasharray:4,4;"/>
        <path d="M1184.13,132.34L1184.13,81.71" style="fill:none;fill-rule:nonzero;stroke:rgb(204,51,17);stroke-width:1.71px;"/>
        <path d="M1184.13,151.96L1184.13,209.59" style="fill:none;fill-rule:nonzero;stroke:rgb(204,51,17);stroke-width:1.71px;"/>
        <circle cx="1184.13" cy="142.06" r="1.21" style="fill:rgb(204,51,17);stroke:rgb(204,51,17);stroke-width:0.71px;"/>
        <path d="M1204.83,172.6L1204.83,132.18" style="fill:none;fill-rule:nonzero;stroke:rgb(238,119,51);stroke-width:1.71px;"/>
        <path d="M1204.83,192.18L1204.83,235.23" style="fill:none;fill-rule:nonzero;stroke:rgb(238,119,51);stroke-width:1.71px;"/>
        <circle cx="1204.83" cy="182.48" r="1.21" style="fill:rgb(238,119,51);stroke:rgb(238,119,51);stroke-width:0.71px;"/>
        <path d="M1225.54,172.84L1225.54,134.48" style="fill:none;fill-rule:nonzero;stroke:rgb(51,187,238);stroke-width:1.71px;"/>
        <path d="M1225.54,191.54L1225.54,229.39" style="fill:none;fill-rule:nonzero;stroke:rgb(51,187,238);stroke-width:1.71px;"/>
        <circle cx="1225.54" cy="182.29" r="1.21" style="fill:rgb(51,187,238);stroke:rgb(51,187,238);stroke-width:0.71px;"/>
    </g>
    <g>
        <g transform="matrix(1,0,0,1,102.46,326.83)">
            <text x="-27.822px" y="0px" style="font-family:'ArialMT', 'Arial', sans-serif;font-size:11px;fill:rgb(118,118,118);">Out-degree</text>
        </g>
        <g transform="matrix(1,0,0,1,264.75,326.83)">
            <text x="-55.333px" y="0px" style="font-family:'ArialMT', 'Arial', sans-serif;font-size:11px;fill:rgb(118,118,118);">Reciprocal Out-degree</text>
        </g>
        <g transform="matrix(1,0,0,1,430.71,326.83)">
            <text x="-46.162px" y="0px" style="font-family:'ArialMT', 'Arial', sans-serif;font-size:11px;fill:rgb(118,118,118);">Supportive Friends</text>
        </g>
        <g transform="matrix(1,0,0,1,596.67,326.83)">
            <text x="-35.771px" y="0px" style="font-family:'ArialMT', 'Arial', sans-serif;font-size:11px;fill:rgb(118,118,118);">Supportive Kin</text>
        </g>
        <g transform="matrix(1,0,0,1,747.33,326.83)">
            <text x="-40.141px" y="0px" style="font-family:'ArialMT', 'Arial', sans-serif;font-size:11px;fill:rgb(118,118,118);">T<tspan x="-33.83px -30.167px " y="0px 0px ">ra</tspan>nsitive <tspan x="9.988px 16.299px 19.962px " y="0px 0px 0px ">Tri</tspan>ads</text>
        </g>
        <g transform="matrix(1,0,0,1,898,326.83)">
            <text x="-32.398px" y="0px" style="font-family:'ArialMT', 'Arial', sans-serif;font-size:11px;fill:rgb(118,118,118);">Three Cycles</text>
        </g>
        <g transform="matrix(1,0,0,1,1048.66,326.83)">
            <text x="-47.698px" y="0px" style="font-family:'ArialMT', 'Arial', sans-serif;font-size:11px;fill:rgb(118,118,118);">General Reputation</text>
        </g>
        <g transform="matrix(1,0,0,1,1204.83,326.83)">
            <text x="-54.723px" y="0px" style="font-family:'ArialMT', 'Arial', sans-serif;font-size:11px;fill:rgb(118,118,118);">Same Gender Patrons</text>
        </g>
        <g transform="matrix(1,0,0,1,1147.42,301.98)">
            <text x="-15.292px" y="0px" style="font-family:'ArialMT', 'Arial', sans-serif;font-size:11px;fill:rgb(118,118,118);">0.0</text>
        </g>
        <g transform="matrix(1,0,0,1,1147.42,242.16)">
            <text x="-15.292px" y="0px" style="font-family:'ArialMT', 'Arial', sans-serif;font-size:11px;fill:rgb(118,118,118);">0.5</text>
        </g>
        <g transform="matrix(1,0,0,1,1147.42,182.33)">
            <text x="-15.292px" y="0px" style="font-family:'ArialMT', 'Arial', sans-serif;font-size:11px;fill:rgb(118,118,118);">1.0</text>
        </g>
        <g transform="matrix(1,0,0,1,1147.42,122.51)">
            <text x="-15.292px" y="0px" style="font-family:'ArialMT', 'Arial', sans-serif;font-size:11px;fill:rgb(118,118,118);">1.5</text>
        </g>
        <g transform="matrix(1,0,0,1,1147.42,62.69)">
            <text x="-15.292px" y="0px" style="font-family:'ArialMT', 'Arial', sans-serif;font-size:11px;fill:rgb(118,118,118);">2.0</text>
        </g>
        <g transform="matrix(1,0,0,1,991.25,301.98)">
            <text x="-6.118px" y="0px" style="font-family:'ArialMT', 'Arial', sans-serif;font-size:11px;fill:rgb(118,118,118);">2</text>
        </g>
        <g transform="matrix(1,0,0,1,991.25,242.16)">
            <text x="-6.118px" y="0px" style="font-family:'ArialMT', 'Arial', sans-serif;font-size:11px;fill:rgb(118,118,118);">0</text>
        </g>
        <g transform="matrix(1,0,0,1,991.25,182.33)">
            <text x="-9.781px" y="0px" style="font-family:'ArialMT', 'Arial', sans-serif;font-size:11px;fill:rgb(118,118,118);">-2</text>
        </g>
        <g transform="matrix(1,0,0,1,991.25,122.51)">
            <text x="-9.781px" y="0px" style="font-family:'ArialMT', 'Arial', sans-serif;font-size:11px;fill:rgb(118,118,118);">-4</text>
        </g>
        <g transform="matrix(1,0,0,1,991.25,62.69)">
            <text x="-9.781px" y="0px" style="font-family:'ArialMT', 'Arial', sans-serif;font-size:11px;fill:rgb(118,118,118);">-6</text>
        </g>
        <g transform="matrix(1,0,0,1,840.59,301.98)">
            <text x="-9.781px" y="0px" style="font-family:'ArialMT', 'Arial', sans-serif;font-size:11px;fill:rgb(118,118,118);">-2</text>
        </g>
        <g transform="matrix(1,0,0,1,840.59,242.16)">
            <text x="-6.118px" y="0px" style="font-family:'ArialMT', 'Arial', sans-serif;font-size:11px;fill:rgb(118,118,118);">0</text>
        </g>
        <g transform="matrix(1,0,0,1,840.59,182.33)">
            <text x="-6.118px" y="0px" style="font-family:'ArialMT', 'Arial', sans-serif;font-size:11px;fill:rgb(118,118,118);">2</text>
        </g>
        <g transform="matrix(1,0,0,1,840.59,122.51)">
            <text x="-6.118px" y="0px" style="font-family:'ArialMT', 'Arial', sans-serif;font-size:11px;fill:rgb(118,118,118);">4</text>
        </g>
        <g transform="matrix(1,0,0,1,840.59,62.69)">
            <text x="-6.118px" y="0px" style="font-family:'ArialMT', 'Arial', sans-serif;font-size:11px;fill:rgb(118,118,118);">6</text>
        </g>
        <g transform="matrix(1,0,0,1,689.92,301.98)">
            <text x="-9.781px" y="0px" style="font-family:'ArialMT', 'Arial', sans-serif;font-size:11px;fill:rgb(118,118,118);">-2</text>
        </g>
        <g transform="matrix(1,0,0,1,689.92,242.16)">
            <text x="-6.118px" y="0px" style="font-family:'ArialMT', 'Arial', sans-serif;font-size:11px;fill:rgb(118,118,118);">0</text>
        </g>
        <g transform="matrix(1,0,0,1,689.92,182.33)">
            <text x="-6.118px" y="0px" style="font-family:'ArialMT', 'Arial', sans-serif;font-size:11px;fill:rgb(118,118,118);">2</text>
        </g>
        <g transform="matrix(1,0,0,1,689.92,122.51)">
            <text x="-6.118px" y="0px" style="font-family:'ArialMT', 'Arial', sans-serif;font-size:11px;fill:rgb(118,118,118);">4</text>
        </g>
        <g transform="matrix(1,0,0,1,689.92,62.69)">
            <text x="-6.118px" y="0px" style="font-family:'ArialMT', 'Arial', sans-serif;font-size:11px;fill:rgb(118,118,118);">6</text>
        </g>
        <g transform="matrix(1,0,0,1,539.26,301.98)">
            <text x="-25.072px" y="0px" style="font-family:'ArialMT', 'Arial', sans-serif;font-size:11px;fill:rgb(118,118,118);">-0.30</text>
        </g>
        <g transform="matrix(1,0,0,1,539.26,242.16)">
            <text x="-25.072px" y="0px" style="font-family:'ArialMT', 'Arial', sans-serif;font-size:11px;fill:rgb(118,118,118);">-0.15</text>
        </g>
        <g transform="matrix(1,0,0,1,539.26,182.33)">
            <text x="-21.409px" y="0px" style="font-family:'ArialMT', 'Arial', sans-serif;font-size:11px;fill:rgb(118,118,118);">0.00</text>
        </g>
        <g transform="matrix(1,0,0,1,539.26,122.51)">
            <text x="-21.409px" y="0px" style="font-family:'ArialMT', 'Arial', sans-serif;font-size:11px;fill:rgb(118,118,118);">0.15</text>
        </g>
        <g transform="matrix(1,0,0,1,539.26,62.69)">
            <text x="-21.409px" y="0px" style="font-family:'ArialMT', 'Arial', sans-serif;font-size:11px;fill:rgb(118,118,118);">0.30</text>
        </g>
        <g transform="matrix(1,0,0,1,373.3,301.98)">
            <text x="-25.072px" y="0px" style="font-family:'ArialMT', 'Arial', sans-serif;font-size:11px;fill:rgb(118,118,118);">-0.05</text>
        </g>
        <g transform="matrix(1,0,0,1,373.3,242.16)">
            <text x="-21.409px" y="0px" style="font-family:'ArialMT', 'Arial', sans-serif;font-size:11px;fill:rgb(118,118,118);">0.05</text>
        </g>
        <g transform="matrix(1,0,0,1,373.3,182.33)">
            <text x="-21.409px" y="0px" style="font-family:'ArialMT', 'Arial', sans-serif;font-size:11px;fill:rgb(118,118,118);">0.15</text>
        </g>
        <g transform="matrix(1,0,0,1,373.3,122.51)">
            <text x="-21.409px" y="0px" style="font-family:'ArialMT', 'Arial', sans-serif;font-size:11px;fill:rgb(118,118,118);">0.25</text>
        </g>
        <g transform="matrix(1,0,0,1,373.3,62.69)">
            <text x="-21.409px" y="0px" style="font-family:'ArialMT', 'Arial', sans-serif;font-size:11px;fill:rgb(118,118,118);">0.35</text>
        </g>
        <g transform="matrix(1,0,0,1,207.35,301.98)">
            <text x="-21.409px" y="0px" style="font-family:'ArialMT', 'Arial', sans-serif;font-size:11px;fill:rgb(118,118,118);">0.00</text>
        </g>
        <g transform="matrix(1,0,0,1,207.35,242.16)">
            <text x="-21.409px" y="0px" style="font-family:'ArialMT', 'Arial', sans-serif;font-size:11px;fill:rgb(118,118,118);">0.25</text>
        </g>
        <g transform="matrix(1,0,0,1,207.35,182.33)">
            <text x="-21.409px" y="0px" style="font-family:'ArialMT', 'Arial', sans-serif;font-size:11px;fill:rgb(118,118,118);">0.50</text>
        </g>
        <g transform="matrix(1,0,0,1,207.35,122.51)">
            <text x="-21.409px" y="0px" style="font-family:'ArialMT', 'Arial', sans-serif;font-size:11px;fill:rgb(118,118,118);">0.75</text>
        </g>
        <g transform="matrix(1,0,0,1,207.35,62.69)">
            <text x="-21.409px" y="0px" style="font-family:'ArialMT', 'Arial', sans-serif;font-size:11px;fill:rgb(118,118,118);">1.00</text>
        </g>
        <g transform="matrix(1,0,0,1,45.05,301.98)">
            <text x="-18.955px" y="0px" style="font-family:'ArialMT', 'Arial', sans-serif;font-size:11px;fill:rgb(118,118,118);">-0.8</text>
        </g>
        <g transform="matrix(1,0,0,1,45.05,242.16)">
            <text x="-18.955px" y="0px" style="font-family:'ArialMT', 'Arial', sans-serif;font-size:11px;fill:rgb(118,118,118);">-0.2</text>
        </g>
        <g transform="matrix(1,0,0,1,45.05,182.33)">
            <text x="-15.292px" y="0px" style="font-family:'ArialMT', 'Arial', sans-serif;font-size:11px;fill:rgb(118,118,118);">0.4</text>
        </g>
        <g transform="matrix(1,0,0,1,45.05,122.51)">
            <text x="-15.292px" y="0px" style="font-family:'ArialMT', 'Arial', sans-serif;font-size:11px;fill:rgb(118,118,118);">1.0</text>
        </g>
        <g transform="matrix(1,0,0,1,45.05,62.69)">
            <text x="-15.292px" y="0px" style="font-family:'ArialMT', 'Arial', sans-serif;font-size:11px;fill:rgb(118,118,118);">1.6</text>
        </g>
        <g transform="matrix(1,0,0,1,653.65,356.89)">
            <text x="-74.575px" y="0px" style="font-family:'Arial-BoldMT', 'Arial', sans-serif;font-weight:700;font-size:11px;fill:rgb(118,118,118);">Egocentric Network Statistic</text>
        </g>
        <g transform="matrix(-3.82857e-16,-1,1,-3.82857e-16,13.59,252.39)">
            <text x="0px" y="0px" style="font-family:'ArialMT', 'Arial', sans-serif;font-size:11px;fill:rgb(118,118,118);">S</text>
        </g>
        <g transform="matrix(-3.82857e-16,-1,1,-3.82857e-16,13.59,245.05)">
            <text x="0px" y="0px" style="font-family:'ArialMT', 'Arial', sans-serif;font-size:11px;fill:rgb(118,118,118);">t</text>
        </g>
        <g transform="matrix(-3.82857e-16,-1,1,-3.82857e-16,13.59,242)">
            <text x="0px" y="0px" style="font-family:'ArialMT', 'Arial', sans-serif;font-size:11px;fill:rgb(118,118,118);">a</text>
        </g>
        <g transform="matrix(-3.82857e-16,-1,1,-3.82857e-16,13.59,235.88)">
            <text x="0px" y="0px" style="font-family:'ArialMT', 'Arial', sans-serif;font-size:11px;fill:rgb(118,118,118);">t</text>
        </g>
        <g transform="matrix(-3.82857e-16,-1,1,-3.82857e-16,13.59,232.83)">
            <text x="0px" y="0px" style="font-family:'ArialMT', 'Arial', sans-serif;font-size:11px;fill:rgb(118,118,118);">i</text>
        </g>
        <g transform="matrix(-3.82857e-16,-1,1,-3.82857e-16,13.59,230.39)">
            <text x="0px" y="0px" style="font-family:'ArialMT', 'Arial', sans-serif;font-size:11px;fill:rgb(118,118,118);">s</text>
        </g>
        <g transform="matrix(-3.82857e-16,-1,1,-3.82857e-16,13.59,224.89)">
            <text x="0px" y="0px" style="font-family:'ArialMT', 'Arial', sans-serif;font-size:11px;fill:rgb(118,118,118);">t</text>
        </g>
        <g transform="matrix(-3.82857e-16,-1,1,-3.82857e-16,13.59,221.83)">
            <text x="0px" y="0px" style="font-family:'ArialMT', 'Arial', sans-serif;font-size:11px;fill:rgb(118,118,118);">i</text>
        </g>
        <g transform="matrix(-3.82857e-16,-1,1,-3.82857e-16,13.59,219.39)">
            <text x="0px" y="0px" style="font-family:'ArialMT', 'Arial', sans-serif;font-size:11px;fill:rgb(118,118,118);">c</text>
        </g>
        <g transform="matrix(-3.82857e-16,-1,1,-3.82857e-16,13.59,211.14)">
            <text x="0px" y="0px" style="font-family:'ArialMT', 'Arial', sans-serif;font-size:11px;fill:rgb(118,118,118);">y</text>
        </g>
        <path d="M6.12,211.14L6.12,205.64" style="fill:none;fill-rule:nonzero;stroke:rgb(118,118,118);stroke-width:0.75px;"/>
        <g transform="matrix(-3.82857e-16,-1,1,-3.82857e-16,15.6,205.64)">
            <text x="0px" y="0px" style="font-family:'ArialMT', 'Arial', sans-serif;font-size:7.7px;fill:rgb(118,118,118);">W</text>
        </g>
        <g transform="matrix(-3.82857e-16,-1,1,-3.82857e-16,15.6,198.38)">
            <text x="0px" y="0px" style="font-family:'ArialMT', 'Arial', sans-serif;font-size:7.7px;fill:rgb(118,118,118);">o</text>
        </g>
        <g transform="matrix(-3.82857e-16,-1,1,-3.82857e-16,15.6,194.11)">
            <text x="0px" y="0px" style="font-family:'ArialMT', 'Arial', sans-serif;font-size:7.7px;fill:rgb(118,118,118);">m</text>
        </g>
        <g transform="matrix(-3.82857e-16,-1,1,-3.82857e-16,15.6,187.71)">
            <text x="0px" y="0px" style="font-family:'ArialMT', 'Arial', sans-serif;font-size:7.7px;fill:rgb(118,118,118);">e</text>
        </g>
        <g transform="matrix(-3.82857e-16,-1,1,-3.82857e-16,15.6,183.43)">
            <text x="0px" y="0px" style="font-family:'ArialMT', 'Arial', sans-serif;font-size:7.7px;fill:rgb(118,118,118);">n</text>
        </g>
        <g transform="matrix(-3.82857e-16,-1,1,-3.82857e-16,13.59,176.4)">
            <text x="0px" y="0px" style="font-family:'Symbol';font-size:11px;fill:rgb(118,118,118);">−</text>
        </g>
        <g transform="matrix(-3.82857e-16,-1,1,-3.82857e-16,13.59,166.09)">
            <text x="0px" y="0px" style="font-family:'ArialMT', 'Arial', sans-serif;font-size:11px;fill:rgb(118,118,118);">S</text>
        </g>
        <g transform="matrix(-3.82857e-16,-1,1,-3.82857e-16,13.59,158.75)">
            <text x="0px" y="0px" style="font-family:'ArialMT', 'Arial', sans-serif;font-size:11px;fill:rgb(118,118,118);">t</text>
        </g>
        <g transform="matrix(-3.82857e-16,-1,1,-3.82857e-16,13.59,155.7)">
            <text x="0px" y="0px" style="font-family:'ArialMT', 'Arial', sans-serif;font-size:11px;fill:rgb(118,118,118);">a</text>
        </g>
        <g transform="matrix(-3.82857e-16,-1,1,-3.82857e-16,13.59,149.58)">
            <text x="0px" y="0px" style="font-family:'ArialMT', 'Arial', sans-serif;font-size:11px;fill:rgb(118,118,118);">t</text>
        </g>
        <g transform="matrix(-3.82857e-16,-1,1,-3.82857e-16,13.59,146.53)">
            <text x="0px" y="0px" style="font-family:'ArialMT', 'Arial', sans-serif;font-size:11px;fill:rgb(118,118,118);">i</text>
        </g>
        <g transform="matrix(-3.82857e-16,-1,1,-3.82857e-16,13.59,144.09)">
            <text x="0px" y="0px" style="font-family:'ArialMT', 'Arial', sans-serif;font-size:11px;fill:rgb(118,118,118);">s</text>
        </g>
        <g transform="matrix(-3.82857e-16,-1,1,-3.82857e-16,13.59,138.59)">
            <text x="0px" y="0px" style="font-family:'ArialMT', 'Arial', sans-serif;font-size:11px;fill:rgb(118,118,118);">t</text>
        </g>
        <g transform="matrix(-3.82857e-16,-1,1,-3.82857e-16,13.59,135.53)">
            <text x="0px" y="0px" style="font-family:'ArialMT', 'Arial', sans-serif;font-size:11px;fill:rgb(118,118,118);">i</text>
        </g>
        <g transform="matrix(-3.82857e-16,-1,1,-3.82857e-16,13.59,133.09)">
            <text x="0px" y="0px" style="font-family:'ArialMT', 'Arial', sans-serif;font-size:11px;fill:rgb(118,118,118);">c</text>
        </g>
        <g transform="matrix(-3.82857e-16,-1,1,-3.82857e-16,13.59,124.84)">
            <text x="0px" y="0px" style="font-family:'ArialMT', 'Arial', sans-serif;font-size:11px;fill:rgb(118,118,118);">y</text>
        </g>
        <path d="M6.12,124.84L6.12,119.34" style="fill:none;fill-rule:nonzero;stroke:rgb(118,118,118);stroke-width:0.75px;"/>
        <g transform="matrix(-3.82857e-16,-1,1,-3.82857e-16,15.6,119.34)">
            <text x="0px" y="0px" style="font-family:'ArialMT', 'Arial', sans-serif;font-size:7.7px;fill:rgb(118,118,118);">M</text>
        </g>
        <g transform="matrix(-3.82857e-16,-1,1,-3.82857e-16,15.6,112.94)">
            <text x="0px" y="0px" style="font-family:'ArialMT', 'Arial', sans-serif;font-size:7.7px;fill:rgb(118,118,118);">e</text>
        </g>
        <g transform="matrix(-3.82857e-16,-1,1,-3.82857e-16,15.6,108.66)">
            <text x="0px" y="0px" style="font-family:'ArialMT', 'Arial', sans-serif;font-size:7.7px;fill:rgb(118,118,118);">n</text>
        </g>
        <g transform="matrix(1,0,0,1,497.72,24.25)">
            <text x="-79.268px" y="0px" style="font-family:'Arial-BoldMT', 'Arial', sans-serif;font-weight:700;font-size:10px;fill:rgb(118,118,118);">Stochastic <tspan x="-26.289px -19.067px " y="0px 0px ">Ac</tspan>tor-Oriented Model:</text>
        </g>
        <path d="M597.96,28.38L597.96,25.48" style="fill:none;fill-rule:nonzero;stroke:rgb(51,187,238);stroke-width:1.71px;"/>
        <path d="M597.96,15.8L597.96,12.89" style="fill:none;fill-rule:nonzero;stroke:rgb(51,187,238);stroke-width:1.71px;"/>
        <rect x="589.86" y="15.8" width="16.2" height="9.68" style="fill:rgb(51,187,238);stroke:rgb(51,187,238);stroke-width:1.71px;"/>
        <path d="M589.86,20.64L606.06,20.64" style="fill:none;fill-rule:nonzero;stroke:white;stroke-width:1.71px;"/>
        <path d="M720.06,28.38L720.06,25.48" style="fill:none;fill-rule:nonzero;stroke:rgb(238,119,51);stroke-width:1.71px;"/>
        <path d="M720.06,15.8L720.06,12.89" style="fill:none;fill-rule:nonzero;stroke:rgb(238,119,51);stroke-width:1.71px;"/>
        <rect x="711.96" y="15.8" width="16.2" height="9.68" style="fill:rgb(238,119,51);stroke:rgb(238,119,51);stroke-width:1.71px;"/>
        <path d="M711.96,20.64L728.16,20.64" style="fill:none;fill-rule:nonzero;stroke:white;stroke-width:1.71px;"/>
        <path d="M829.94,28.38L829.94,25.48" style="fill:none;fill-rule:nonzero;stroke:rgb(204,51,17);stroke-width:1.71px;"/>
        <path d="M829.94,15.8L829.94,12.89" style="fill:none;fill-rule:nonzero;stroke:rgb(204,51,17);stroke-width:1.71px;"/>
        <rect x="821.84" y="15.8" width="16.2" height="9.68" style="fill:rgb(204,51,17);stroke:rgb(204,51,17);stroke-width:1.71px;"/>
        <path d="M821.84,20.64L838.04,20.64" style="fill:none;fill-rule:nonzero;stroke:white;stroke-width:1.71px;"/>
        <g transform="matrix(1,0,0,1,618.72,24.23)">
            <text x="0px" y="0px" style="font-family:'ArialMT', 'Arial', sans-serif;font-size:10px;fill:rgb(118,118,118);">Social Constraints</text>
        </g>
        <g transform="matrix(1,0,0,1,740.82,24.23)">
            <text x="0px" y="0px" style="font-family:'ArialMT', 'Arial', sans-serif;font-size:10px;fill:rgb(118,118,118);">Fully Interacted</text>
        </g>
        <g transform="matrix(1,0,0,1,850.7,24.23)">
            <text x="0px" y="0px" style="font-family:'ArialMT', 'Arial', sans-serif;font-size:10px;fill:rgb(118,118,118);">Baseline</text>
        </g>
    </g>
</svg>
