<?xml version="1.0" encoding="UTF-8"?>
<svg xmlns:xlink="http://www.w3.org/1999/xlink" xmlns="http://www.w3.org/2000/svg" fill-opacity="1" color-rendering="auto" color-interpolation="auto" text-rendering="auto" stroke="black" stroke-linecap="square" width="685" stroke-miterlimit="10" shape-rendering="auto" stroke-opacity="1" fill="black" stroke-dasharray="none" font-weight="normal" stroke-width="1" height="756" font-family="'Dialog'" font-style="normal" stroke-linejoin="miter" font-size="12" stroke-dashoffset="0" image-rendering="auto">
<!--Generated by ySVG-->
<defs id="genericDefs"/>
<g>
<defs id="defs1">
<clipPath clipPathUnits="userSpaceOnUse" id="clipPath1">
<path d="M0 0 L685 0 L685 756 L0 756 L0 0 Z"/>
</clipPath>
<clipPath clipPathUnits="userSpaceOnUse" id="clipPath2">
<path d="M1143 485 L1828 485 L1828 1241 L1143 1241 L1143 485 Z"/>
</clipPath>
<clipPath clipPathUnits="userSpaceOnUse" id="clipPath3">
<path d="M-271.3893 -135.4767 L202.3803 57.5486 L-10.6519 580.4243 L-484.4215 387.399 L-271.3893 -135.4767 Z"/>
</clipPath>
<clipPath clipPathUnits="userSpaceOnUse" id="clipPath4">
<path d="M-121.8467 -283.7428 L122.7965 165.5523 L-373.0678 435.5528 L-617.7111 -13.7423 L-121.8467 -283.7428 Z"/>
</clipPath>
<clipPath clipPathUnits="userSpaceOnUse" id="clipPath5">
<path d="M-149.1247 -269.2718 L138.5472 153.7664 L-328.3387 471.2554 L-616.0106 48.2173 L-149.1247 -269.2718 Z"/>
</clipPath>
<clipPath clipPathUnits="userSpaceOnUse" id="clipPath6">
<path d="M257.3246 -109.6741 L-27.7259 315.1349 L-496.5662 0.539 L-211.5157 -424.2699 L257.3246 -109.6741 Z"/>
</clipPath>
<clipPath clipPathUnits="userSpaceOnUse" id="clipPath7">
<path d="M-294.573 309.598 L-404.1321 -190.1151 L147.3762 -311.03 L256.9352 188.6832 L-294.573 309.598 Z"/>
</clipPath>
<clipPath clipPathUnits="userSpaceOnUse" id="clipPath8">
<path d="M-172.0396 409.255 L-584.8932 107.1487 L-251.4737 -348.4971 L161.38 -46.3908 L-172.0396 409.255 Z"/>
</clipPath>
<clipPath clipPathUnits="userSpaceOnUse" id="clipPath9">
<path d="M34.8975 -312.4911 L26.9514 199.0295 L-537.5881 190.2598 L-529.642 -321.2608 L34.8975 -312.4911 Z"/>
</clipPath>
<clipPath clipPathUnits="userSpaceOnUse" id="clipPath10">
<path d="M-73.6275 -301.6885 L94.2048 181.5803 L-439.1546 366.8084 L-606.987 -116.4604 L-73.6275 -301.6885 Z"/>
</clipPath>
<clipPath clipPathUnits="userSpaceOnUse" id="clipPath11">
<path d="M-42.9572 445.1225 L-526.6331 278.4669 L-342.7037 -255.3418 L140.9722 -88.6862 L-42.9572 445.1225 Z"/>
</clipPath>
<clipPath clipPathUnits="userSpaceOnUse" id="clipPath12">
<path d="M14.9607 448.3895 L-486.1827 345.5704 L-372.7064 -207.5163 L128.4369 -104.6972 L14.9607 448.3895 Z"/>
</clipPath>
<clipPath clipPathUnits="userSpaceOnUse" id="clipPath13">
<path d="M60.5973 130.8057 L-438.1913 244.4997 L-563.6697 -305.9882 L-64.8811 -419.6822 L60.5973 130.8057 Z"/>
</clipPath>
<clipPath clipPathUnits="userSpaceOnUse" id="clipPath14">
<path d="M24.2697 -212.2356 L87.3089 295.4478 L-472.9958 365.021 L-536.035 -142.6624 L24.2697 -212.2356 Z"/>
</clipPath>
<clipPath clipPathUnits="userSpaceOnUse" id="clipPath15">
<path d="M226.6525 164.2316 L-283.2556 122.8778 L-237.6155 -439.8821 L272.2926 -398.5284 L226.6525 164.2316 Z"/>
</clipPath>
<clipPath clipPathUnits="userSpaceOnUse" id="clipPath16">
<path d="M-60.9992 -256.7288 L316.5949 88.4366 L-64.3467 505.1682 L-441.9408 160.0029 L-60.9992 -256.7288 Z"/>
</clipPath>
<clipPath clipPathUnits="userSpaceOnUse" id="clipPath17">
<path d="M-276.9918 -158.2566 L232.9164 -116.9033 L187.2768 445.8567 L-322.6314 404.5034 L-276.9918 -158.2566 Z"/>
</clipPath>
<clipPath clipPathUnits="userSpaceOnUse" id="clipPath18">
<path d="M-293.6563 129.9611 L53.4977 -245.8055 L468.2123 137.331 L121.0583 513.0975 L-293.6563 129.9611 Z"/>
</clipPath>
<clipPath clipPathUnits="userSpaceOnUse" id="clipPath19">
<path d="M181.3505 -123.9863 L-165.8036 251.7802 L-580.5182 -131.3562 L-233.3641 -507.1227 L181.3505 -123.9863 Z"/>
</clipPath>
<clipPath clipPathUnits="userSpaceOnUse" id="clipPath20">
<path d="M-43.8795 -202.5036 L176.3462 259.2507 L-333.2688 502.3028 L-553.4945 40.5485 L-43.8795 -202.5036 Z"/>
</clipPath>
<clipPath clipPathUnits="userSpaceOnUse" id="clipPath21">
<path d="M-82.8804 262.7034 L-460.4746 -82.4619 L-79.533 -499.1935 L298.0612 -154.0282 L-82.8804 262.7034 Z"/>
</clipPath>
<clipPath clipPathUnits="userSpaceOnUse" id="clipPath22">
<path d="M-173.6006 208.4784 L-393.8264 -253.2759 L115.7886 -496.328 L336.0143 -34.5736 L-173.6006 208.4784 Z"/>
</clipPath>
<clipPath clipPathUnits="userSpaceOnUse" id="clipPath23">
<path d="M112.2752 -97.7247 L-60.8323 383.6797 L-592.1341 192.6298 L-419.0266 -288.7747 L112.2752 -97.7247 Z"/>
</clipPath>
<clipPath clipPathUnits="userSpaceOnUse" id="clipPath24">
<path d="M243.9441 292.0688 L-266.627 324.2178 L-302.1083 -239.2738 L208.4628 -271.4229 L243.9441 292.0688 Z"/>
</clipPath>
<clipPath clipPathUnits="userSpaceOnUse" id="clipPath25">
<path d="M280.4091 -11.4997 L-140.8656 278.7486 L-461.1981 -186.191 L-39.9234 -476.4393 L280.4091 -11.4997 Z"/>
</clipPath>
<clipPath clipPathUnits="userSpaceOnUse" id="clipPath26">
<path d="M261.4626 -336.9357 L300.5953 173.1477 L-262.358 216.3365 L-301.4908 -293.7469 L261.4626 -336.9357 Z"/>
</clipPath>
<clipPath clipPathUnits="userSpaceOnUse" id="clipPath27">
<path d="M-521.5067 -99.2313 L-60.4023 -320.8145 L184.148 188.0832 L-276.9565 409.6664 L-521.5067 -99.2313 Z"/>
</clipPath>
<clipPath clipPathUnits="userSpaceOnUse" id="clipPath28">
<path d="M-198.7616 381.136 L-440.1974 -69.8908 L57.5782 -336.3513 L299.014 114.6755 L-198.7616 381.136 Z"/>
</clipPath>
<clipPath clipPathUnits="userSpaceOnUse" id="clipPath29">
<path d="M388.0032 65.2714 L-82.8579 265.287 L-303.605 -254.3787 L167.2561 -454.3943 L388.0032 65.2714 Z"/>
</clipPath>
<clipPath clipPathUnits="userSpaceOnUse" id="clipPath30">
<path d="M-401.6618 357.2903 L-717.5411 -45.1233 L-273.4176 -393.7434 L42.4618 8.6701 L-401.6618 357.2903 Z"/>
</clipPath>
<clipPath clipPathUnits="userSpaceOnUse" id="clipPath31">
<path d="M-307.2945 382.3749 L-578.7054 -51.2753 L-100.1074 -350.8179 L171.3035 82.8324 L-307.2945 382.3749 Z"/>
</clipPath>
<clipPath clipPathUnits="userSpaceOnUse" id="clipPath32">
<path d="M70.1375 227.1178 L-396.6176 17.6993 L-165.4929 -497.4348 L301.2622 -288.0162 L70.1375 227.1178 Z"/>
</clipPath>
<clipPath clipPathUnits="userSpaceOnUse" id="clipPath33">
<path d="M-138.767 -221.1431 L327.9882 -11.7249 L96.8638 503.4094 L-369.8914 293.9911 L-138.767 -221.1431 Z"/>
</clipPath>
<clipPath clipPathUnits="userSpaceOnUse" id="clipPath34">
<path d="M-231.7475 134.8896 L-284.6733 -373.9476 L276.9047 -432.3592 L329.8305 76.478 L-231.7475 134.8896 Z"/>
</clipPath>
<clipPath clipPathUnits="userSpaceOnUse" id="clipPath35">
<path d="M-72.8076 -301.9178 L93.7113 181.8051 L-440.1494 365.5836 L-606.6683 -118.1393 L-72.8076 -301.9178 Z"/>
</clipPath>
<clipPath clipPathUnits="userSpaceOnUse" id="clipPath36">
<path d="M-414.9837 87.8345 L-228.7805 -388.6577 L297.0999 -183.1545 L110.8967 293.3376 L-414.9837 87.8345 Z"/>
</clipPath>
<clipPath clipPathUnits="userSpaceOnUse" id="clipPath37">
<path d="M53.7556 -205.2644 L44.3315 306.231 L-520.1803 295.8302 L-510.7562 -215.6653 L53.7556 -205.2644 Z"/>
</clipPath>
<clipPath clipPathUnits="userSpaceOnUse" id="clipPath38">
<path d="M-299.2144 211.2392 L-289.7906 -300.2563 L274.7212 -289.8556 L265.2973 221.6398 L-299.2144 211.2392 Z"/>
</clipPath>
<clipPath clipPathUnits="userSpaceOnUse" id="clipPath39">
<path d="M-339.6404 152.1459 L-55.6956 -273.4029 L413.9612 39.9726 L130.0164 465.5214 L-339.6404 152.1459 Z"/>
</clipPath>
<clipPath clipPathUnits="userSpaceOnUse" id="clipPath40">
<path d="M44.055 -311.6614 L21.1056 199.4059 L-542.9336 174.0779 L-519.9843 -336.9894 L44.055 -311.6614 Z"/>
</clipPath>
<clipPath clipPathUnits="userSpaceOnUse" id="clipPath41">
<path d="M182.977 155.721 L-322.5651 234.1021 L-409.0703 -323.8393 L96.4718 -402.2203 L182.977 155.721 Z"/>
</clipPath>
<clipPath clipPathUnits="userSpaceOnUse" id="clipPath42">
<path d="M101.2274 -210.4939 L341.7538 241.0185 L-156.5577 506.4754 L-397.0841 54.9629 L101.2274 -210.4939 Z"/>
</clipPath>
<clipPath clipPathUnits="userSpaceOnUse" id="clipPath43">
<path d="M-510.7029 -144.2959 L-31.352 -323.0111 L165.887 206.0244 L-313.4639 384.7396 L-510.7029 -144.2959 Z"/>
</clipPath>
<clipPath clipPathUnits="userSpaceOnUse" id="clipPath44">
<path d="M-525.7982 78.4483 L-159.1857 -278.3593 L234.605 126.2524 L-132.0075 483.0601 L-525.7982 78.4483 Z"/>
</clipPath>
<clipPath clipPathUnits="userSpaceOnUse" id="clipPath45">
<path d="M178.1349 515.5187 L-236.5882 215.9838 L93.9934 -241.7252 L508.7166 57.8097 L178.1349 515.5187 Z"/>
</clipPath>
<clipPath clipPathUnits="userSpaceOnUse" id="clipPath46">
<path d="M403.7883 150.2704 L-75.5626 328.9858 L-272.8018 -200.0496 L206.5491 -378.765 L403.7883 150.2704 Z"/>
</clipPath>
<clipPath clipPathUnits="userSpaceOnUse" id="clipPath47">
<path d="M335.4888 266.4475 L-175.8985 280.5735 L-191.4886 -283.8188 L319.8987 -297.9448 L335.4888 266.4475 Z"/>
</clipPath>
<clipPath clipPathUnits="userSpaceOnUse" id="clipPath48">
<path d="M-2.8575 -326.5898 L229.3756 129.2438 L-273.7048 385.5478 L-505.938 -70.2857 L-2.8575 -326.5898 Z"/>
</clipPath>
<clipPath clipPathUnits="userSpaceOnUse" id="clipPath49">
<path d="M59.4514 -128.9149 L112.3775 379.9222 L-449.2004 438.3341 L-502.1265 -70.503 L59.4514 -128.9149 Z"/>
</clipPath>
<clipPath clipPathUnits="userSpaceOnUse" id="clipPath50">
<path d="M385.6876 -72.4736 L19.0751 284.3341 L-374.7155 -120.2777 L-8.1031 -477.0853 L385.6876 -72.4736 Z"/>
</clipPath>
<clipPath clipPathUnits="userSpaceOnUse" id="clipPath51">
<path d="M-420.9153 51.2228 L-194.8119 -407.6821 L311.6583 -158.1432 L85.5549 300.7617 L-420.9153 51.2228 Z"/>
</clipPath>
<clipPath clipPathUnits="userSpaceOnUse" id="clipPath52">
<path d="M370.7529 245.0982 L-101.1022 442.7576 L-319.2488 -78.0051 L152.6062 -275.6645 L370.7529 245.0982 Z"/>
</clipPath>
<clipPath clipPathUnits="userSpaceOnUse" id="clipPath53">
<path d="M376.9066 75.7188 L4.927 426.9275 L-382.6844 16.3923 L-10.7048 -334.8164 L376.9066 75.7188 Z"/>
</clipPath>
<clipPath clipPathUnits="userSpaceOnUse" id="clipPath54">
<path d="M-164.8607 332.5645 L-397.0939 -123.269 L105.9865 -379.5731 L338.2198 76.2604 L-164.8607 332.5645 Z"/>
</clipPath>
<clipPath clipPathUnits="userSpaceOnUse" id="clipPath55">
<path d="M-164.2948 216.4686 L-404.8214 -235.0437 L93.4901 -500.5008 L334.0166 -48.9884 L-164.2948 216.4686 Z"/>
</clipPath>
<clipPath clipPathUnits="userSpaceOnUse" id="clipPath56">
<path d="M128.2913 354.6307 L-361.7761 207.8303 L-199.7599 -333.0324 L290.3075 -186.232 L128.2913 354.6307 Z"/>
</clipPath>
<clipPath clipPathUnits="userSpaceOnUse" id="clipPath57">
<path d="M133.5535 -236.8654 L178.2471 272.7609 L-384.2018 322.0869 L-428.8954 -187.5393 L133.5535 -236.8654 Z"/>
</clipPath>
<clipPath clipPathUnits="userSpaceOnUse" id="clipPath58">
<path d="M-275.4852 242.8398 L-320.1784 -266.7864 L242.2704 -316.1121 L286.9637 193.5141 L-275.4852 242.8398 Z"/>
</clipPath>
<clipPath clipPathUnits="userSpaceOnUse" id="clipPath59">
<path d="M238.7122 -39.6965 L-4.4875 410.3817 L-501.2161 141.9744 L-258.0164 -308.1037 L238.7122 -39.6965 Z"/>
</clipPath>
<clipPath clipPathUnits="userSpaceOnUse" id="clipPath60">
<path d="M-360.1908 45.6708 L-116.9907 -404.4071 L379.7377 -135.9994 L136.5376 314.0785 L-360.1908 45.6708 Z"/>
</clipPath>
<clipPath clipPathUnits="userSpaceOnUse" id="clipPath61">
<path d="M-250.863 367.1267 L-594.6666 -11.7077 L-176.566 -391.1464 L167.2375 -12.3119 L-250.863 367.1267 Z"/>
</clipPath>
<clipPath clipPathUnits="userSpaceOnUse" id="clipPath62">
<path d="M93.7214 -361.1521 L437.5251 17.6822 L19.4247 397.121 L-324.379 18.2867 L93.7214 -361.1521 Z"/>
</clipPath>
<clipPath clipPathUnits="userSpaceOnUse" id="clipPath63">
<path d="M225.9027 89.5217 L-221.139 338.2588 L-495.6576 -155.1186 L-48.6159 -403.8557 L225.9027 89.5217 Z"/>
</clipPath>
<clipPath clipPathUnits="userSpaceOnUse" id="clipPath64">
<path d="M-94.1346 209.7474 L-303.0614 -257.228 L212.3159 -487.81 L421.2426 -20.8346 L-94.1346 209.7474 Z"/>
</clipPath>
<clipPath clipPathUnits="userSpaceOnUse" id="clipPath65">
<path d="M-399.8874 -83.547 L47.1543 -332.2841 L321.6729 161.0933 L-125.3688 409.8304 L-399.8874 -83.547 Z"/>
</clipPath>
<clipPath clipPathUnits="userSpaceOnUse" id="clipPath66">
<path d="M-38.8744 -203.7727 L170.0524 263.2027 L-345.3249 493.7846 L-554.2516 26.8092 L-38.8744 -203.7727 Z"/>
</clipPath>
<clipPath clipPathUnits="userSpaceOnUse" id="clipPath67">
<path d="M-383.1557 303.5332 L-553.243 -178.9466 L-20.7543 -366.6633 L149.3329 115.8165 L-383.1557 303.5332 Z"/>
</clipPath>
<clipPath clipPathUnits="userSpaceOnUse" id="clipPath68">
<path d="M-318.5895 -6.6667 L150.6729 -210.4049 L375.5284 307.4964 L-93.734 511.2345 L-318.5895 -6.6667 Z"/>
</clipPath>
<clipPath clipPathUnits="userSpaceOnUse" id="clipPath69">
<path d="M115.8726 96.4263 L-377.1847 -39.9956 L-226.6227 -584.1581 L266.4346 -447.7362 L115.8726 96.4263 Z"/>
</clipPath>
<clipPath clipPathUnits="userSpaceOnUse" id="clipPath70">
<path d="M-180.1824 -90.4516 L312.8749 45.9704 L162.3127 590.1329 L-330.7445 453.7108 L-180.1824 -90.4516 Z"/>
</clipPath>
<clipPath clipPathUnits="userSpaceOnUse" id="clipPath71">
<path d="M-345.8967 -404.9289 L153.3375 -293.2076 L30.0363 257.772 L-469.1979 146.0508 L-345.8967 -404.9289 Z"/>
</clipPath>
<clipPath clipPathUnits="userSpaceOnUse" id="clipPath72">
<path d="M162.3026 410.9036 L-336.9316 299.1823 L-213.6305 -251.7974 L285.6037 -140.0761 L162.3026 410.9036 Z"/>
</clipPath>
<clipPath clipPathUnits="userSpaceOnUse" id="clipPath73">
<path d="M-360.3622 -290.2273 L130.0819 -144.6904 L-30.5399 396.5881 L-520.984 251.0512 L-360.3622 -290.2273 Z"/>
</clipPath>
<clipPath clipPathUnits="userSpaceOnUse" id="clipPath74">
<path d="M361.7121 -315.3337 L132.975 142.2641 L-372.0526 -110.1815 L-143.3155 -567.7794 L361.7121 -315.3337 Z"/>
</clipPath>
<clipPath clipPathUnits="userSpaceOnUse" id="clipPath75">
<path d="M107.2682 -485.2224 L553.223 -234.5417 L276.5593 257.6361 L-169.3954 6.9554 L107.2682 -485.2224 Z"/>
</clipPath>
<clipPath clipPathUnits="userSpaceOnUse" id="clipPath76">
<path d="M-190.9871 117.2085 L-106.7412 -387.3894 L450.1581 -294.4113 L365.9122 210.1866 L-190.9871 117.2085 Z"/>
</clipPath>
<clipPath clipPathUnits="userSpaceOnUse" id="clipPath77">
<path d="M76.0883 414.6633 L-315.1381 85.0297 L48.6619 -346.7472 L439.8883 -17.1136 L76.0883 414.6633 Z"/>
</clipPath>
<clipPath clipPathUnits="userSpaceOnUse" id="clipPath78">
<path d="M92.7492 -111.2338 L8.5032 393.364 L-548.3961 300.386 L-464.1501 -204.2119 L92.7492 -111.2338 Z"/>
</clipPath>
<clipPath clipPathUnits="userSpaceOnUse" id="clipPath79">
<path d="M-233.6472 491.1971 L-679.6021 240.5166 L-402.9385 -251.6613 L43.0163 -0.9808 L-233.6472 491.1971 Z"/>
</clipPath>
<clipPath clipPathUnits="userSpaceOnUse" id="clipPath80">
<path d="M-85.3393 -367.1474 L291.2379 -20.8729 L-90.9279 394.7364 L-467.5051 48.4619 L-85.3393 -367.1474 Z"/>
</clipPath>
<clipPath clipPathUnits="userSpaceOnUse" id="clipPath81">
<path d="M-38.9467 373.1222 L-415.5239 26.8476 L-33.3582 -388.7617 L343.219 -42.4871 L-38.9467 373.1222 Z"/>
</clipPath>
<clipPath clipPathUnits="userSpaceOnUse" id="clipPath82">
<path d="M-184.0587 -122.6331 L301.9309 -282.4161 L478.2753 253.9461 L-7.7143 413.7291 L-184.0587 -122.6331 Z"/>
</clipPath>
<clipPath clipPathUnits="userSpaceOnUse" id="clipPath83">
<path d="M-171.4698 201.438 L-78.7136 -301.665 L476.5359 -199.2946 L383.7797 303.8085 L-171.4698 201.438 Z"/>
</clipPath>
<clipPath clipPathUnits="userSpaceOnUse" id="clipPath84">
<path d="M87.1657 -195.4636 L-5.59 307.6396 L-560.8397 205.2698 L-468.084 -297.8333 L87.1657 -195.4636 Z"/>
</clipPath>
<clipPath clipPathUnits="userSpaceOnUse" id="clipPath85">
<path d="M-103.7756 419.678 L-444.0221 37.6456 L-22.3921 -337.8673 L317.8543 44.1651 L-103.7756 419.678 Z"/>
</clipPath>
<clipPath clipPathUnits="userSpaceOnUse" id="clipPath86">
<path d="M-256.9969 33.0102 L143.2761 -285.5773 L494.8851 156.1837 L94.6122 474.7713 L-256.9969 33.0102 Z"/>
</clipPath>
<clipPath clipPathUnits="userSpaceOnUse" id="clipPath87">
<path d="M-313.8109 -181.6978 L148.2648 -401.2484 L390.5717 108.7214 L-71.5041 328.2719 L-313.8109 -181.6978 Z"/>
</clipPath>
<clipPath clipPathUnits="userSpaceOnUse" id="clipPath88">
<path d="M72.2091 128.6078 L-413.7805 288.3907 L-590.1248 -247.9715 L-104.1352 -407.7544 L72.2091 128.6078 Z"/>
</clipPath>
<clipPath clipPathUnits="userSpaceOnUse" id="clipPath89">
<path d="M216.0089 187.6723 L-246.0668 407.2231 L-488.3739 -102.7465 L-26.2982 -322.2973 L216.0089 187.6723 Z"/>
</clipPath>
<clipPath clipPathUnits="userSpaceOnUse" id="clipPath90">
<path d="M-355.6185 -333.7675 L90.7445 -583.7205 L366.605 -91.0921 L-79.758 158.8609 L-355.6185 -333.7675 Z"/>
</clipPath>
<clipPath clipPathUnits="userSpaceOnUse" id="clipPath91">
<path d="M306.8581 339.7433 L-139.5057 589.6948 L-415.3647 97.0656 L30.9991 -152.886 L306.8581 339.7433 Z"/>
</clipPath>
<clipPath clipPathUnits="userSpaceOnUse" id="clipPath92">
<path d="M148.1252 -27.0355 L-252.1477 291.552 L-603.7567 -150.209 L-203.4838 -468.7966 L148.1252 -27.0355 Z"/>
</clipPath>
<clipPath clipPathUnits="userSpaceOnUse" id="clipPath93">
<path d="M196.9815 -334.2533 L230.6835 176.2177 L-332.6976 213.4128 L-366.3996 -297.0582 L196.9815 -334.2533 Z"/>
</clipPath>
<clipPath clipPathUnits="userSpaceOnUse" id="clipPath94">
<path d="M-435.5971 313.8206 L-709.2722 -118.4043 L-232.2473 -420.4457 L41.4278 11.7792 L-435.5971 313.8206 Z"/>
</clipPath>
<clipPath clipPathUnits="userSpaceOnUse" id="clipPath95">
<path d="M-453.258 -324.6434 L56.1181 -277.1839 L3.7395 284.9888 L-505.6366 237.5293 L-453.258 -324.6434 Z"/>
</clipPath>
<clipPath clipPathUnits="userSpaceOnUse" id="clipPath96">
<path d="M-277.898 -372.4422 L161.9182 -111.1413 L-126.4664 374.2617 L-566.2826 112.9609 L-277.898 -372.4422 Z"/>
</clipPath>
</defs>
<g fill="rgb(255,255,255)" fill-opacity="0" transform="translate(-1143,-485)" stroke-opacity="0" stroke="rgb(255,255,255)">
<rect x="1143" width="685" height="756" y="485" clip-path="url(#clipPath2)" stroke="none"/>
</g>
<g transform="matrix(1,0,0,1,-1143,-485)" fill-opacity="0.3647" fill="rgb(229,211,34)" stroke="rgb(229,211,34)" stroke-width="3" stroke-opacity="0.3647" stroke-miterlimit="1.45">
<path fill="none" d="M1182.4515 664.8055 L1536.811 520.4308" clip-path="url(#clipPath2)"/>
<path d="M0 0 L-12 -5 L-9 0 L-12 5 Z" clip-path="url(#clipPath3)" transform="matrix(1.24,-0.5052,0.5052,1.24,1547.9712,515.8839)" stroke="none"/>
</g>
<g transform="matrix(1,0,0,1,-1143,-485)" fill-opacity="0.6196" fill="rgb(100,191,207)" stroke="rgb(100,191,207)" stroke-width="3" stroke-opacity="0.6196" stroke-miterlimit="1.45">
<path fill="none" d="M1185.1489 1202.0706 L1548.9265 533.9816" clip-path="url(#clipPath2)"/>
<path d="M0 0 L-12 -5 L-9 0 L-12 5 Z" clip-path="url(#clipPath4)" transform="matrix(0.6403,-1.176,1.176,0.6403,1554.6893,523.3979)" stroke="none"/>
</g>
<g transform="matrix(1,0,0,1,-1143,-485)" fill-opacity="0.6196" fill="rgb(100,191,207)" stroke="rgb(100,191,207)" stroke-width="3" stroke-opacity="0.6196" stroke-miterlimit="1.45">
<path fill="none" d="M1457.0028 664.4266 L1546.6514 532.5932" clip-path="url(#clipPath2)"/>
<path d="M0 0 L-12 -5 L-9 0 L-12 5 Z" clip-path="url(#clipPath5)" transform="matrix(0.7529,-1.1072,1.1072,0.7529,1553.4277,522.6281)" stroke="none"/>
</g>
<g transform="matrix(1,0,0,1,-1143,-485)" fill-opacity="0.3647" fill="rgb(229,211,34)" stroke="rgb(229,211,34)" stroke-width="3" stroke-opacity="0.3647" stroke-miterlimit="1.45">
<path fill="none" d="M1558.8391 841.1666 L1463.6406 699.2929" clip-path="url(#clipPath2)"/>
<path d="M0 0 L-12 -5 L-9 0 L-12 5 Z" clip-path="url(#clipPath6)" transform="matrix(-0.7461,-1.1119,1.1119,-0.7461,1456.926,689.2861)" stroke="none"/>
</g>
<g transform="matrix(1,0,0,1,-1143,-485)" fill-opacity="0.3647" fill="rgb(229,211,34)" stroke="rgb(229,211,34)" stroke-width="3" stroke-opacity="0.3647" stroke-miterlimit="1.45">
<path fill="none" d="M1558.6501 524.8763 L1466.0398 947.2841" clip-path="url(#clipPath2)"/>
<path d="M0 0 L-12 -5 L-9 0 L-12 5 Z" clip-path="url(#clipPath7)" transform="matrix(-0.2868,1.3079,-1.3079,-0.2868,1463.459,959.0554)" stroke="none"/>
</g>
<g transform="matrix(1,0,0,1,-1143,-485)" fill-opacity="0.6196" fill="rgb(100,191,207)" stroke="rgb(100,191,207)" stroke-width="3" stroke-opacity="0.6196" stroke-miterlimit="1.45">
<path fill="none" d="M1555.0918 862.4803 L1290.4269 1056.1493" clip-path="url(#clipPath2)"/>
<path d="M0 0 L-12 -5 L-9 0 L-12 5 Z" clip-path="url(#clipPath8)" transform="matrix(-1.0806,0.7907,-0.7907,-1.0806,1280.7017,1063.2657)" stroke="none"/>
</g>
<g transform="matrix(1,0,0,1,-1143,-485)" fill-opacity="0.3647" fill="rgb(229,211,34)" stroke="rgb(229,211,34)" stroke-width="3" stroke-opacity="0.3647" stroke-miterlimit="1.45">
<path fill="none" d="M1566.964 838.6241 L1562.2827 537.2719" clip-path="url(#clipPath2)"/>
<path d="M0 0 L-12 -5 L-9 0 L-12 5 Z" clip-path="url(#clipPath9)" transform="matrix(-0.0208,-1.3388,1.3388,-0.0208,1562.0956,525.2225)" stroke="none"/>
</g>
<g transform="matrix(1,0,0,1,-1143,-485)" fill-opacity="0.3647" fill="rgb(229,211,34)" stroke="rgb(229,211,34)" stroke-width="3" stroke-opacity="0.3647" stroke-miterlimit="1.45">
<path fill="none" d="M1355.6678 1103.9562 L1552.988 535.778" clip-path="url(#clipPath2)"/>
<path d="M0 0 L-12 -5 L-9 0 L-12 5 Z" clip-path="url(#clipPath10)" transform="matrix(0.4393,-1.2649,1.2649,0.4393,1556.9415,524.394)" stroke="none"/>
</g>
<g transform="matrix(1,0,0,1,-1143,-485)" fill-opacity="0.3647" fill="rgb(229,211,34)" stroke="rgb(229,211,34)" stroke-width="3" stroke-opacity="0.3647" stroke-miterlimit="1.45">
<path fill="none" d="M1714.1768 918.5943 L1294.1718 1063.3114" clip-path="url(#clipPath2)"/>
<path d="M0 0 L-12 -5 L-9 0 L-12 5 Z" clip-path="url(#clipPath11)" transform="matrix(-1.2659,0.4362,-0.4362,-1.2659,1282.7783,1067.2372)" stroke="none"/>
</g>
<g transform="matrix(1,0,0,1,-1143,-485)" fill-opacity="0.3647" fill="rgb(229,211,34)" stroke="rgb(229,211,34)" stroke-width="3" stroke-opacity="0.3647" stroke-miterlimit="1.45">
<path fill="none" d="M1540.2471 1016.3893 L1295.0953 1066.6869" clip-path="url(#clipPath2)"/>
<path d="M0 0 L-12 -5 L-9 0 L-12 5 Z" clip-path="url(#clipPath12)" transform="matrix(-1.3117,0.2691,-0.2691,-1.3117,1283.2904,1069.1089)" stroke="none"/>
</g>
<g transform="matrix(1,0,0,1,-1143,-485)" fill-opacity="0.3647" fill="rgb(229,211,34)" stroke="rgb(229,211,34)" stroke-width="3" stroke-opacity="0.3647" stroke-miterlimit="1.45">
<path fill="none" d="M1558.5751 759.3652 L1194.9346 676.4769" clip-path="url(#clipPath2)"/>
<path d="M0 0 L-12 -5 L-9 0 L-12 5 Z" clip-path="url(#clipPath13)" transform="matrix(-1.3055,-0.2976,0.2976,-1.3055,1183.1851,673.7988)" stroke="none"/>
</g>
<g transform="matrix(1,0,0,1,-1143,-485)" fill-opacity="0.6196" fill="rgb(100,191,207)" stroke="rgb(100,191,207)" stroke-width="3" stroke-opacity="0.6196" stroke-miterlimit="1.45">
<path fill="none" d="M1352.5952 1103.2402 L1419.5248 564.2258" clip-path="url(#clipPath2)"/>
<path d="M0 0 L-12 -5 L-9 0 L-12 5 Z" clip-path="url(#clipPath14)" transform="matrix(0.165,-1.3288,1.3288,0.165,1421.0098,552.2668)" stroke="none"/>
</g>
<g fill="rgb(62,84,150)" stroke-miterlimit="1.45" stroke-width="3" transform="matrix(1,0,0,1,-1143,-485)" stroke="rgb(62,84,150)">
<path fill="none" d="M1530.4441 674.2034 L1475.278 678.6774" clip-path="url(#clipPath2)"/>
<path d="M0 0 L-12 -5 L-9 0 L-12 5 Z" clip-path="url(#clipPath15)" transform="matrix(-1.3346,0.1082,-0.1082,-1.3346,1463.2666,679.6515)" stroke="none"/>
</g>
<g fill="rgb(62,84,150)" stroke-miterlimit="1.45" stroke-width="3" transform="matrix(1,0,0,1,-1143,-485)" stroke="rgb(62,84,150)">
<path fill="none" d="M1293.0481 813.5745 L1426.3226 691.7459" clip-path="url(#clipPath2)"/>
<path d="M0 0 L-12 -5 L-9 0 L-12 5 Z" clip-path="url(#clipPath16)" transform="matrix(0.9883,-0.9034,0.9034,0.9883,1435.2173,683.6152)" stroke="none"/>
</g>
<g fill="rgb(62,84,150)" stroke-miterlimit="1.45" stroke-width="3" transform="matrix(1,0,0,1,-1143,-485)" stroke="rgb(62,84,150)">
<path fill="none" d="M1462.6252 671.6772 L1517.7913 667.2032" clip-path="url(#clipPath2)"/>
<path d="M0 0 L-12 -5 L-9 0 L-12 5 Z" clip-path="url(#clipPath17)" transform="matrix(1.3346,-0.1082,0.1082,1.3346,1529.8026,666.2291)" stroke="none"/>
</g>
<g fill="rgb(62,84,150)" stroke-miterlimit="1.45" stroke-width="3" transform="matrix(1,0,0,1,-1143,-485)" stroke="rgb(62,84,150)">
<path fill="none" d="M1435.6262 545.307 L1529.4618 646.8765" clip-path="url(#clipPath2)"/>
<path d="M0 0 L-12 -5 L-9 0 L-12 5 Z" clip-path="url(#clipPath18)" transform="matrix(0.9086,0.9835,-0.9835,0.9086,1537.6394,655.7281)" stroke="none"/>
</g>
<g fill="rgb(62,84,150)" stroke-miterlimit="1.45" stroke-width="3" transform="matrix(1,0,0,1,-1143,-485)" stroke="rgb(62,84,150)">
<path fill="none" d="M1531.7332 661.1243 L1437.8976 559.5548" clip-path="url(#clipPath2)"/>
<path d="M0 0 L-12 -5 L-9 0 L-12 5 Z" clip-path="url(#clipPath19)" transform="matrix(-0.9086,-0.9835,0.9835,-0.9086,1429.72,550.7032)" stroke="none"/>
</g>
<g transform="matrix(1,0,0,1,-1143,-485)" fill-opacity="0.3647" fill="rgb(229,211,34)" stroke="rgb(229,211,34)" stroke-width="3" stroke-opacity="0.3647" stroke-miterlimit="1.45">
<path fill="none" d="M1287.6653 811.5521 L1407.8439 559.5698" clip-path="url(#clipPath2)"/>
<path d="M0 0 L-12 -5 L-9 0 L-12 5 Z" clip-path="url(#clipPath20)" transform="matrix(0.5764,-1.2086,1.2086,0.5764,1413.0315,548.6927)" stroke="none"/>
</g>
<g fill="rgb(62,84,150)" stroke-miterlimit="1.45" stroke-width="3" transform="matrix(1,0,0,1,-1143,-485)" stroke="rgb(62,84,150)">
<path fill="none" d="M1440.5891 689.5435 L1307.3146 811.372" clip-path="url(#clipPath2)"/>
<path d="M0 0 L-12 -5 L-9 0 L-12 5 Z" clip-path="url(#clipPath21)" transform="matrix(-0.9883,0.9034,-0.9034,-0.9883,1298.4199,819.5027)" stroke="none"/>
</g>
<g transform="matrix(1,0,0,1,-1143,-485)" fill-opacity="0.3647" fill="rgb(229,211,34)" stroke="rgb(229,211,34)" stroke-width="3" stroke-opacity="0.3647" stroke-miterlimit="1.45">
<path fill="none" d="M1420.262 552.1165 L1300.0834 804.0988" clip-path="url(#clipPath2)"/>
<path d="M0 0 L-12 -5 L-9 0 L-12 5 Z" clip-path="url(#clipPath22)" transform="matrix(-0.5764,1.2086,-1.2086,-0.5764,1294.8958,814.9759)" stroke="none"/>
</g>
<g transform="matrix(1,0,0,1,-1143,-485)" fill-opacity="0.3647" fill="rgb(229,211,34)" stroke="rgb(229,211,34)" stroke-width="3" stroke-opacity="0.3647" stroke-miterlimit="1.45">
<path fill="none" d="M1424.3691 880.7711 L1321.0803 593.5293" clip-path="url(#clipPath2)"/>
<path d="M0 0 L-12 -5 L-9 0 L-12 5 Z" clip-path="url(#clipPath23)" transform="matrix(-0.4531,-1.26,1.26,-0.4531,1317.0026,582.1893)" stroke="none"/>
</g>
<g transform="matrix(1,0,0,1,-1143,-485)" fill-opacity="0.6196" fill="rgb(100,191,207)" stroke="rgb(100,191,207)" stroke-width="3" stroke-opacity="0.6196" stroke-miterlimit="1.45">
<path fill="none" d="M1713.3882 912.7652 L1456.4423 896.5861" clip-path="url(#clipPath2)"/>
<path d="M0 0 L-12 -5 L-9 0 L-12 5 Z" clip-path="url(#clipPath24)" transform="matrix(-1.3363,-0.0841,0.0841,-1.3363,1444.4153,895.8288)" stroke="none"/>
</g>
<g transform="matrix(1,0,0,1,-1143,-485)" fill-opacity="0.6196" fill="rgb(100,191,207)" stroke="rgb(100,191,207)" stroke-width="3" stroke-opacity="0.6196" stroke-miterlimit="1.45">
<path fill="none" d="M1560.8478 754.1885 L1470.8436 692.1778" clip-path="url(#clipPath2)"/>
<path d="M0 0 L-12 -5 L-9 0 L-12 5 Z" clip-path="url(#clipPath25)" transform="matrix(-1.1026,-0.7597,0.7597,-1.1026,1460.92,685.3407)" stroke="none"/>
</g>
<g transform="matrix(1,0,0,1,-1143,-485)" fill-opacity="0.6196" fill="rgb(100,191,207)" stroke="rgb(100,191,207)" stroke-width="3" stroke-opacity="0.6196" stroke-miterlimit="1.45">
<path fill="none" d="M1556.0884 998.4186 L1565.1277 880.5939" clip-path="url(#clipPath2)"/>
<path d="M0 0 L-12 -5 L-9 0 L-12 5 Z" clip-path="url(#clipPath26)" transform="matrix(0.1024,-1.3351,1.3351,0.1024,1566.0494,868.5784)" stroke="none"/>
</g>
<g transform="matrix(1,0,0,1,-1143,-485)" fill-opacity="0.5765" fill="rgb(122,194,177)" stroke="rgb(122,194,177)" stroke-width="3" stroke-opacity="0.5765" stroke-miterlimit="1.45">
<path fill="none" d="M1351.8613 732.7825 L1703.9767 901.9912" clip-path="url(#clipPath2)"/>
<path d="M0 0 L-12 -5 L-9 0 L-12 5 Z" clip-path="url(#clipPath27)" transform="matrix(1.2069,0.58,-0.58,1.2069,1714.8385,907.2108)" stroke="none"/>
</g>
<g transform="matrix(1,0,0,1,-1143,-485)" fill-opacity="0.5843" fill="rgb(119,194,182)" stroke="rgb(119,194,182)" stroke-width="3" stroke-opacity="0.5843" stroke-miterlimit="1.45">
<path fill="none" d="M1566.1208 775.9233 L1473.0129 949.8585" clip-path="url(#clipPath2)"/>
<path d="M0 0 L-12 -5 L-9 0 L-12 5 Z" clip-path="url(#clipPath28)" transform="matrix(-0.6319,1.1805,-1.1805,-0.6319,1467.3257,960.4828)" stroke="none"/>
</g>
<g transform="matrix(1,0,0,1,-1143,-485)" fill-opacity="0.3647" fill="rgb(229,211,34)" stroke="rgb(229,211,34)" stroke-width="3" stroke-opacity="0.3647" stroke-miterlimit="1.45">
<path fill="none" d="M1788.7432 854.2588 L1598.0975 773.275" clip-path="url(#clipPath2)"/>
<path d="M0 0 L-12 -5 L-9 0 L-12 5 Z" clip-path="url(#clipPath29)" transform="matrix(-1.2324,-0.5235,0.5235,-1.2324,1587.0059,768.5635)" stroke="none"/>
</g>
<g transform="matrix(1,0,0,1,-1143,-485)" fill-opacity="0.3647" fill="rgb(229,211,34)" stroke="rgb(229,211,34)" stroke-width="3" stroke-opacity="0.3647" stroke-miterlimit="1.45">
<path fill="none" d="M1420.183 906.6853 L1194.6786 1193.9659" clip-path="url(#clipPath2)"/>
<path d="M0 0 L-12 -5 L-9 0 L-12 5 Z" clip-path="url(#clipPath30)" transform="matrix(-0.8268,1.0533,-1.0533,-0.8268,1187.2377,1203.4452)" stroke="none"/>
</g>
<g transform="matrix(1,0,0,1,-1143,-485)" fill-opacity="0.3647" fill="rgb(229,211,34)" stroke="rgb(229,211,34)" stroke-width="3" stroke-opacity="0.3647" stroke-miterlimit="1.45">
<path fill="none" d="M1565.2419 775.4138 L1365.0983 1095.1959" clip-path="url(#clipPath2)"/>
<path d="M0 0 L-12 -5 L-9 0 L-12 5 Z" clip-path="url(#clipPath31)" transform="matrix(-0.7104,1.135,-1.135,-0.7104,1358.705,1105.411)" stroke="none"/>
</g>
<g transform="matrix(1,0,0,1,-1143,-485)" fill-opacity="0.5961" fill="rgb(112,193,191)" stroke="rgb(112,193,191)" stroke-width="3" stroke-opacity="0.5961" stroke-miterlimit="1.45">
<path fill="none" d="M1436.9922 686.4082 L1364.1663 719.0829" clip-path="url(#clipPath2)"/>
<path d="M0 0 L-12 -5 L-9 0 L-12 5 Z" clip-path="url(#clipPath32)" transform="matrix(-1.2217,0.5481,-0.5481,-1.2217,1353.1714,724.016)" stroke="none"/>
</g>
<g transform="matrix(1,0,0,1,-1143,-485)" fill-opacity="0.5961" fill="rgb(112,193,191)" stroke="rgb(112,193,191)" stroke-width="3" stroke-opacity="0.5961" stroke-miterlimit="1.45">
<path fill="none" d="M1349.9172 716.7077 L1422.7432 684.033" clip-path="url(#clipPath2)"/>
<path d="M0 0 L-12 -5 L-9 0 L-12 5 Z" clip-path="url(#clipPath33)" transform="matrix(1.2217,-0.5481,0.5481,1.2217,1433.738,679.1)" stroke="none"/>
</g>
<g transform="matrix(1,0,0,1,-1143,-485)" fill-opacity="0.6039" fill="rgb(109,192,195)" stroke="rgb(109,192,195)" stroke-width="3" stroke-opacity="0.6039" stroke-miterlimit="1.45">
<path fill="none" d="M1314.4071 582.8927 L1291.7897 800.3402" clip-path="url(#clipPath2)"/>
<path d="M0 0 L-12 -5 L-9 0 L-12 5 Z" clip-path="url(#clipPath34)" transform="matrix(-0.1385,1.3318,-1.3318,-0.1385,1290.543,812.3264)" stroke="none"/>
</g>
<g transform="matrix(1,0,0,1,-1143,-485)" fill-opacity="0.6078" fill="rgb(106,192,199)" stroke="rgb(106,192,199)" stroke-width="3" stroke-opacity="0.6078" stroke-miterlimit="1.45">
<path fill="none" d="M1434.3273 880.7031 L1553.0575 535.802" clip-path="url(#clipPath2)"/>
<path d="M0 0 L-12 -5 L-9 0 L-12 5 Z" clip-path="url(#clipPath35)" transform="matrix(0.4358,-1.2661,1.2661,0.4358,1556.98,524.4074)" stroke="none"/>
</g>
<g transform="matrix(1,0,0,1,-1143,-485)" fill-opacity="0.6118" fill="rgb(104,191,202)" stroke="rgb(104,191,202)" stroke-width="3" stroke-opacity="0.6118" stroke-miterlimit="1.45">
<path fill="none" d="M1434.9045 908.8573 L1450.4008 948.512" clip-path="url(#clipPath2)"/>
<path d="M0 0 L-12 -5 L-9 0 L-12 5 Z" clip-path="url(#clipPath36)" transform="matrix(0.4874,1.2471,-1.2471,0.4874,1454.787,959.7362)" stroke="none"/>
</g>
<g transform="matrix(1,0,0,1,-1143,-485)" fill-opacity="0.6235" fill="rgb(99,191,208)" stroke="rgb(99,191,208)" stroke-width="3" stroke-opacity="0.6235" stroke-miterlimit="1.45">
<path fill="none" d="M1425.1794 880.5148 L1419.3469 563.9514" clip-path="url(#clipPath2)"/>
<path d="M0 0 L-12 -5 L-9 0 L-12 5 Z" clip-path="url(#clipPath37)" transform="matrix(-0.0247,-1.3388,1.3388,-0.0247,1419.1249,551.9025)" stroke="none"/>
</g>
<g transform="matrix(1,0,0,1,-1143,-485)" fill-opacity="0.6235" fill="rgb(99,191,208)" stroke="rgb(99,191,208)" stroke-width="3" stroke-opacity="0.6235" stroke-miterlimit="1.45">
<path fill="none" d="M1427.1235 551.7525 L1432.9559 868.316" clip-path="url(#clipPath2)"/>
<path d="M0 0 L-12 -5 L-9 0 L-12 5 Z" clip-path="url(#clipPath38)" transform="matrix(0.0247,1.3388,-1.3388,0.0247,1433.178,880.3648)" stroke="none"/>
</g>
<g transform="matrix(1,0,0,1,-1143,-485)" fill-opacity="0.6235" fill="rgb(99,191,209)" stroke="rgb(99,191,209)" stroke-width="3" stroke-opacity="0.6235" stroke-miterlimit="1.45">
<path fill="none" d="M1431.1836 549.8586 L1558.1858 740.1971" clip-path="url(#clipPath2)"/>
<path d="M0 0 L-12 -5 L-9 0 L-12 5 Z" clip-path="url(#clipPath39)" transform="matrix(0.7432,1.1138,-1.1138,0.7432,1564.8744,750.2214)" stroke="none"/>
</g>
<g transform="matrix(1,0,0,1,-1143,-485)" fill-opacity="0.6196" fill="rgb(100,191,207)" stroke="rgb(100,191,207)" stroke-width="3" stroke-opacity="0.6196" stroke-miterlimit="1.45">
<path fill="none" d="M1572.527 747.7139 L1563.076 537.2479" clip-path="url(#clipPath2)"/>
<path d="M0 0 L-12 -5 L-9 0 L-12 5 Z" clip-path="url(#clipPath40)" transform="matrix(-0.0601,-1.3376,1.3376,-0.0601,1562.5354,525.2092)" stroke="none"/>
</g>
<g fill="rgb(62,84,150)" stroke-miterlimit="1.45" stroke-width="3" transform="matrix(1,0,0,1,-1143,-485)" stroke="rgb(62,84,150)">
<path fill="none" d="M1558.3771 760.4006 L1365.0729 730.4301" clip-path="url(#clipPath2)"/>
<path d="M0 0 L-12 -5 L-9 0 L-12 5 Z" clip-path="url(#clipPath41)" transform="matrix(-1.3232,-0.2051,0.2051,-1.3232,1353.1643,728.5837)" stroke="none"/>
</g>
<g fill="rgb(62,84,150)" stroke-miterlimit="1.45" stroke-width="3" transform="matrix(1,0,0,1,-1143,-485)" stroke="rgb(62,84,150)">
<path fill="none" d="M1288.3409 811.6381 L1322.3608 747.7764" clip-path="url(#clipPath2)"/>
<path d="M0 0 L-12 -5 L-9 0 L-12 5 Z" clip-path="url(#clipPath42)" transform="matrix(0.6295,-1.1818,1.1818,0.6295,1328.0267,737.1406)" stroke="none"/>
</g>
<g transform="matrix(1,0,0,1,-1143,-485)" fill-opacity="0.6196" fill="rgb(100,191,207)" stroke="rgb(100,191,207)" stroke-width="3" stroke-opacity="0.6196" stroke-miterlimit="1.45">
<path fill="none" d="M1582.1687 854.9352 L1704.9523 900.7123" clip-path="url(#clipPath2)"/>
<path d="M0 0 L-12 -5 L-9 0 L-12 5 Z" clip-path="url(#clipPath43)" transform="matrix(1.2546,0.4678,-0.4678,1.2546,1716.2439,904.9222)" stroke="none"/>
</g>
<g transform="matrix(1,0,0,1,-1143,-485)" fill-opacity="0.6196" fill="rgb(100,191,207)" stroke="rgb(100,191,207)" stroke-width="3" stroke-opacity="0.6196" stroke-miterlimit="1.45">
<path fill="none" d="M1586.3501 769.9156 L1712.1545 892.3555" clip-path="url(#clipPath2)"/>
<path d="M0 0 L-12 -5 L-9 0 L-12 5 Z" clip-path="url(#clipPath44)" transform="matrix(0.9595,0.9339,-0.9339,0.9595,1720.7905,900.7604)" stroke="none"/>
</g>
<g transform="matrix(1,0,0,1,-1143,-485)" fill-opacity="0.3647" fill="rgb(229,211,34)" stroke="rgb(229,211,34)" stroke-width="3" stroke-opacity="0.3647" stroke-miterlimit="1.45">
<path fill="none" d="M1790.3892 868.906 L1750.2877 897.8694" clip-path="url(#clipPath2)"/>
<path d="M0 0 L-12 -5 L-9 0 L-12 5 Z" clip-path="url(#clipPath45)" transform="matrix(-1.0855,0.784,-0.784,-1.0855,1740.5184,904.9252)" stroke="none"/>
</g>
<g transform="matrix(1,0,0,1,-1143,-485)" fill-opacity="0.6196" fill="rgb(100,191,207)" stroke="rgb(100,191,207)" stroke-width="3" stroke-opacity="0.6196" stroke-miterlimit="1.45">
<path fill="none" d="M1713.3867 912.3949 L1590.6033 866.6178" clip-path="url(#clipPath2)"/>
<path d="M0 0 L-12 -5 L-9 0 L-12 5 Z" clip-path="url(#clipPath46)" transform="matrix(-1.2546,-0.4678,0.4678,-1.2546,1579.3116,862.408)" stroke="none"/>
</g>
<g transform="matrix(1,0,0,1,-1143,-485)" fill-opacity="0.3647" fill="rgb(229,211,34)" stroke="rgb(229,211,34)" stroke-width="3" stroke-opacity="0.3647" stroke-miterlimit="1.45">
<path fill="none" d="M1787.5548 859.7092 L1594.2375 854.3693" clip-path="url(#clipPath2)"/>
<path d="M0 0 L-12 -5 L-9 0 L-12 5 Z" clip-path="url(#clipPath47)" transform="matrix(-1.3385,-0.037,0.037,-1.3385,1582.1913,854.0365)" stroke="none"/>
</g>
<g fill="rgb(62,84,150)" stroke-miterlimit="1.45" stroke-width="3" transform="matrix(1,0,0,1,-1143,-485)" stroke="rgb(62,84,150)">
<path fill="none" d="M1432.4397 880.1962 L1528.9108 690.8402" clip-path="url(#clipPath2)"/>
<path d="M0 0 L-12 -5 L-9 0 L-12 5 Z" clip-path="url(#clipPath48)" transform="matrix(0.6078,-1.1931,1.1931,0.6078,1534.3812,680.1026)" stroke="none"/>
</g>
<g fill="rgb(62,84,150)" stroke-miterlimit="1.45" stroke-width="3" transform="matrix(1,0,0,1,-1143,-485)" stroke="rgb(62,84,150)">
<path fill="none" d="M1282.5889 811.4689 L1305.2064 594.0215" clip-path="url(#clipPath2)"/>
<path d="M0 0 L-12 -5 L-9 0 L-12 5 Z" clip-path="url(#clipPath49)" transform="matrix(0.1385,-1.3318,1.3318,0.1385,1306.4531,582.0353)" stroke="none"/>
</g>
<g transform="matrix(1,0,0,1,-1143,-485)" fill-opacity="0.6196" fill="rgb(100,191,207)" stroke="rgb(100,191,207)" stroke-width="3" stroke-opacity="0.6196" stroke-miterlimit="1.45">
<path fill="none" d="M1715.2084 906.4911 L1589.4039 784.0512" clip-path="url(#clipPath2)"/>
<path d="M0 0 L-12 -5 L-9 0 L-12 5 Z" clip-path="url(#clipPath50)" transform="matrix(-0.9595,-0.9339,0.9339,-0.9595,1580.7679,775.6462)" stroke="none"/>
</g>
<g fill="rgb(62,84,150)" stroke-miterlimit="1.45" stroke-width="3" transform="matrix(1,0,0,1,-1143,-485)" stroke="rgb(62,84,150)">
<path fill="none" d="M1344.9709 739.741 L1448.291 949.4419" clip-path="url(#clipPath2)"/>
<path d="M0 0 L-12 -5 L-9 0 L-12 5 Z" clip-path="url(#clipPath51)" transform="matrix(0.5918,1.2011,-1.2011,0.5918,1453.6171,960.2519)" stroke="none"/>
</g>
<g transform="matrix(1,0,0,1,-1143,-485)" fill-opacity="0.6196" fill="rgb(100,191,207)" stroke="rgb(100,191,207)" stroke-width="3" stroke-opacity="0.6196" stroke-miterlimit="1.45">
<path fill="none" d="M1541.1057 1007.5791 L1485.1968 984.1589" clip-path="url(#clipPath2)"/>
<path d="M0 0 L-12 -5 L-9 0 L-12 5 Z" clip-path="url(#clipPath52)" transform="matrix(-1.235,-0.5173,0.5173,-1.235,1474.0818,979.5029)" stroke="none"/>
</g>
<g fill="rgb(62,84,150)" stroke-miterlimit="1.45" stroke-width="3" transform="matrix(1,0,0,1,-1143,-485)" stroke="rgb(62,84,150)">
<path fill="none" d="M1544.0342 1003.0769 L1449.114 913.457" clip-path="url(#clipPath2)"/>
<path d="M0 0 L-12 -5 L-9 0 L-12 5 Z" clip-path="url(#clipPath53)" transform="matrix(-0.9736,-0.9192,0.9192,-0.9736,1440.3517,905.1839)" stroke="none"/>
</g>
<g fill="rgb(62,84,150)" stroke-miterlimit="1.45" stroke-width="3" transform="matrix(1,0,0,1,-1143,-485)" stroke="rgb(62,84,150)">
<path fill="none" d="M1541.5065 683.7402 L1445.0354 873.0962" clip-path="url(#clipPath2)"/>
<path d="M0 0 L-12 -5 L-9 0 L-12 5 Z" clip-path="url(#clipPath54)" transform="matrix(-0.6078,1.1931,-1.1931,-0.6078,1439.5649,883.8338)" stroke="none"/>
</g>
<g fill="rgb(62,84,150)" stroke-miterlimit="1.45" stroke-width="3" transform="matrix(1,0,0,1,-1143,-485)" stroke="rgb(62,84,150)">
<path fill="none" d="M1335.0697 740.935 L1301.0498 804.7966" clip-path="url(#clipPath2)"/>
<path d="M0 0 L-12 -5 L-9 0 L-12 5 Z" clip-path="url(#clipPath55)" transform="matrix(-0.6295,1.1818,-1.1818,-0.6295,1295.3839,815.4324)" stroke="none"/>
</g>
<g fill="rgb(62,84,150)" stroke-miterlimit="1.45" stroke-width="3" transform="matrix(1,0,0,1,-1143,-485)" stroke="rgb(62,84,150)">
<path fill="none" d="M1552.8278 857.9266 L1455.358 887.1238" clip-path="url(#clipPath2)"/>
<path d="M0 0 L-12 -5 L-9 0 L-12 5 Z" clip-path="url(#clipPath56)" transform="matrix(-1.2827,0.3842,-0.3842,-1.2827,1443.814,890.5818)" stroke="none"/>
</g>
<g fill="rgb(62,84,150)" stroke-miterlimit="1.45" stroke-width="3" transform="matrix(1,0,0,1,-1143,-485)" stroke="rgb(62,84,150)">
<path fill="none" d="M1426.723 880.1364 L1442.2704 702.8549" clip-path="url(#clipPath2)"/>
<path d="M0 0 L-12 -5 L-9 0 L-12 5 Z" clip-path="url(#clipPath57)" transform="matrix(0.117,-1.3339,1.3339,0.117,1443.3232,690.8502)" stroke="none"/>
</g>
<g fill="rgb(62,84,150)" stroke-miterlimit="1.45" stroke-width="3" transform="matrix(1,0,0,1,-1143,-485)" stroke="rgb(62,84,150)">
<path fill="none" d="M1451.2898 691.5803 L1435.7426 868.8616" clip-path="url(#clipPath2)"/>
<path d="M0 0 L-12 -5 L-9 0 L-12 5 Z" clip-path="url(#clipPath58)" transform="matrix(-0.117,1.3339,-1.3339,-0.117,1434.6897,880.8664)" stroke="none"/>
</g>
<g fill="rgb(62,84,150)" stroke-miterlimit="1.45" stroke-width="3" transform="matrix(1,0,0,1,-1143,-485)" stroke="rgb(62,84,150)">
<path fill="none" d="M1419.053 884.0686 L1347.4402 751.5382" clip-path="url(#clipPath2)"/>
<path d="M0 0 L-12 -5 L-9 0 L-12 5 Z" clip-path="url(#clipPath59)" transform="matrix(-0.6365,-1.178,1.178,-0.6365,1341.7114,740.9362)" stroke="none"/>
</g>
<g fill="rgb(62,84,150)" stroke-miterlimit="1.45" stroke-width="3" transform="matrix(1,0,0,1,-1143,-485)" stroke="rgb(62,84,150)">
<path fill="none" d="M1348.7333 737.1031 L1420.3462 869.6335" clip-path="url(#clipPath2)"/>
<path d="M0 0 L-12 -5 L-9 0 L-12 5 Z" clip-path="url(#clipPath60)" transform="matrix(0.6365,1.178,-1.178,0.6365,1426.0751,880.2355)" stroke="none"/>
</g>
<g fill="rgb(62,84,150)" stroke-miterlimit="1.45" stroke-width="3" transform="matrix(1,0,0,1,-1143,-485)" stroke="rgb(62,84,150)">
<path fill="none" d="M1422.6876 908.2839 L1289.3795 1055.175" clip-path="url(#clipPath2)"/>
<path d="M0 0 L-12 -5 L-9 0 L-12 5 Z" clip-path="url(#clipPath61)" transform="matrix(-0.8998,0.9915,-0.9915,-0.8998,1281.2809,1064.0989)" stroke="none"/>
</g>
<g fill="rgb(62,84,150)" stroke-miterlimit="1.45" stroke-width="3" transform="matrix(1,0,0,1,-1143,-485)" stroke="rgb(62,84,150)">
<path fill="none" d="M1275.3536 1058.726 L1408.6619 911.8348" clip-path="url(#clipPath2)"/>
<path d="M0 0 L-12 -5 L-9 0 L-12 5 Z" clip-path="url(#clipPath62)" transform="matrix(0.8999,-0.9915,0.9915,0.8999,1416.7605,902.9109)" stroke="none"/>
</g>
<g fill="rgb(62,84,150)" stroke-miterlimit="1.45" stroke-width="3" transform="matrix(1,0,0,1,-1143,-485)" stroke="rgb(62,84,150)">
<path fill="none" d="M1552.5969 850.0762 L1359.5687 742.674" clip-path="url(#clipPath2)"/>
<path d="M0 0 L-12 -5 L-9 0 L-12 5 Z" clip-path="url(#clipPath63)" transform="matrix(-1.1701,-0.651,0.651,-1.1701,1349.0382,736.8148)" stroke="none"/>
</g>
<g fill="rgb(62,84,150)" stroke-miterlimit="1.45" stroke-width="3" transform="matrix(1,0,0,1,-1143,-485)" stroke="rgb(62,84,150)">
<path fill="none" d="M1420.5977 552.2278 L1352.8057 703.7507" clip-path="url(#clipPath2)"/>
<path d="M0 0 L-12 -5 L-9 0 L-12 5 Z" clip-path="url(#clipPath64)" transform="matrix(-0.5468,1.2222,-1.2222,-0.5468,1347.8842,714.7508)" stroke="none"/>
</g>
<g fill="rgb(62,84,150)" stroke-miterlimit="1.45" stroke-width="3" transform="matrix(1,0,0,1,-1143,-485)" stroke="rgb(62,84,150)">
<path fill="none" d="M1352.9415 729.8316 L1545.9697 837.2338" clip-path="url(#clipPath2)"/>
<path d="M0 0 L-12 -5 L-9 0 L-12 5 Z" clip-path="url(#clipPath65)" transform="matrix(1.1701,0.651,-0.651,1.1701,1556.5002,843.0931)" stroke="none"/>
</g>
<g fill="rgb(62,84,150)" stroke-miterlimit="1.45" stroke-width="3" transform="matrix(1,0,0,1,-1143,-485)" stroke="rgb(62,84,150)">
<path fill="none" d="M1340.6018 711.4388 L1408.3938 559.9159" clip-path="url(#clipPath2)"/>
<path d="M0 0 L-12 -5 L-9 0 L-12 5 Z" clip-path="url(#clipPath66)" transform="matrix(0.5468,-1.2222,1.2222,0.5468,1413.3153,548.9158)" stroke="none"/>
</g>
<g fill="rgb(62,84,150)" stroke-miterlimit="1.45" stroke-width="3" transform="matrix(1,0,0,1,-1143,-485)" stroke="rgb(62,84,150)">
<path fill="none" d="M1424.4578 909.0329 L1359.7405 1092.6139" clip-path="url(#clipPath2)"/>
<path d="M0 0 L-12 -5 L-9 0 L-12 5 Z" clip-path="url(#clipPath67)" transform="matrix(-0.4452,1.2628,-1.2628,-0.4452,1355.7339,1103.9792)" stroke="none"/>
</g>
<g fill="rgb(62,84,150)" stroke-miterlimit="1.45" stroke-width="3" transform="matrix(1,0,0,1,-1143,-485)" stroke="rgb(62,84,150)">
<path fill="none" d="M1325.686 574.0479 L1519.6882 658.2772" clip-path="url(#clipPath2)"/>
<path d="M0 0 L-12 -5 L-9 0 L-12 5 Z" clip-path="url(#clipPath68)" transform="matrix(1.2282,0.5333,-0.5333,1.2282,1530.7422,663.0765)" stroke="none"/>
</g>
<g fill="rgb(62,84,150)" stroke-miterlimit="1.45" stroke-width="3" transform="matrix(1,0,0,1,-1143,-485)" stroke="rgb(62,84,150)">
<path fill="none" d="M1409.9771 545.0954 L1338.5779 564.8505" clip-path="url(#clipPath2)"/>
<path d="M0 0 L-12 -5 L-9 0 L-12 5 Z" clip-path="url(#clipPath69)" transform="matrix(-1.2905,0.3571,-0.3571,-1.2905,1326.9634,568.0641)" stroke="none"/>
</g>
<g fill="rgb(62,84,150)" stroke-miterlimit="1.45" stroke-width="3" transform="matrix(1,0,0,1,-1143,-485)" stroke="rgb(62,84,150)">
<path fill="none" d="M1324.8079 560.3599 L1396.2072 540.6047" clip-path="url(#clipPath2)"/>
<path d="M0 0 L-12 -5 L-9 0 L-12 5 Z" clip-path="url(#clipPath70)" transform="matrix(1.2905,-0.3571,0.3571,1.2905,1407.8217,537.3912)" stroke="none"/>
</g>
<g transform="matrix(1,0,0,1,-1143,-485)" fill-opacity="0.6196" fill="rgb(100,191,207)" stroke="rgb(100,191,207)" stroke-width="3" stroke-opacity="0.6196" stroke-miterlimit="1.45">
<path fill="none" d="M1473.4791 966.6472 L1701.6169 915.5933" clip-path="url(#clipPath2)"/>
<path d="M0 0 L-12 -5 L-9 0 L-12 5 Z" clip-path="url(#clipPath71)" transform="matrix(1.3067,-0.2924,0.2924,1.3067,1713.377,912.9615)" stroke="none"/>
</g>
<g transform="matrix(1,0,0,1,-1143,-485)" fill-opacity="0.6196" fill="rgb(100,191,207)" stroke="rgb(100,191,207)" stroke-width="3" stroke-opacity="0.6196" stroke-miterlimit="1.45">
<path fill="none" d="M1715.126 920.768 L1486.9882 971.8219" clip-path="url(#clipPath2)"/>
<path d="M0 0 L-12 -5 L-9 0 L-12 5 Z" clip-path="url(#clipPath72)" transform="matrix(-1.3067,0.2924,-0.2924,-1.3067,1475.2281,974.4536)" stroke="none"/>
</g>
<g transform="matrix(1,0,0,1,-1143,-485)" fill-opacity="0.3647" fill="rgb(229,211,34)" stroke="rgb(229,211,34)" stroke-width="3" stroke-opacity="0.3647" stroke-miterlimit="1.45">
<path fill="none" d="M1587.5801 758.4316 L1704.5819 723.7119" clip-path="url(#clipPath2)"/>
<path d="M0 0 L-12 -5 L-9 0 L-12 5 Z" clip-path="url(#clipPath73)" transform="matrix(1.2837,-0.3809,0.3809,1.2837,1716.1348,720.2836)" stroke="none"/>
</g>
<g transform="matrix(1,0,0,1,-1143,-485)" fill-opacity="0.3647" fill="rgb(229,211,34)" stroke="rgb(229,211,34)" stroke-width="3" stroke-opacity="0.3647" stroke-miterlimit="1.45">
<path fill="none" d="M1795.8424 846.7062 L1742.61 740.2126" clip-path="url(#clipPath2)"/>
<path d="M0 0 L-12 -5 L-9 0 L-12 5 Z" clip-path="url(#clipPath74)" transform="matrix(-0.5987,-1.1977,1.1977,-0.5987,1737.2218,729.4335)" stroke="none"/>
</g>
<g fill="rgb(62,84,150)" stroke-miterlimit="1.45" stroke-width="3" transform="matrix(1,0,0,1,-1143,-485)" stroke="rgb(62,84,150)">
<path fill="none" d="M1188.6277 1204.668 L1325.6522 1127.6436" clip-path="url(#clipPath2)"/>
<path d="M0 0 L-12 -5 L-9 0 L-12 5 Z" clip-path="url(#clipPath75)" transform="matrix(1.1672,-0.6561,0.6561,1.1672,1336.1571,1121.7385)" stroke="none"/>
</g>
<g fill="rgb(62,84,150)" stroke-miterlimit="1.45" stroke-width="3" transform="matrix(1,0,0,1,-1143,-485)" stroke="rgb(62,84,150)">
<path fill="none" d="M1318.252 581.6684 L1337.9258 699.5063" clip-path="url(#clipPath2)"/>
<path d="M0 0 L-12 -5 L-9 0 L-12 5 Z" clip-path="url(#clipPath76)" transform="matrix(0.2205,1.3207,-1.3207,0.2205,1339.9103,711.3927)" stroke="none"/>
</g>
<g transform="matrix(1,0,0,1,-1143,-485)" fill-opacity="0.3647" fill="rgb(229,211,34)" stroke="rgb(229,211,34)" stroke-width="3" stroke-opacity="0.3647" stroke-miterlimit="1.45">
<path fill="none" d="M1719.0439 725.6815 L1587.8838 836.1924" clip-path="url(#clipPath2)"/>
<path d="M0 0 L-12 -5 L-9 0 L-12 5 Z" clip-path="url(#clipPath77)" transform="matrix(-1.024,0.8628,-0.8628,-1.024,1578.6681,843.9572)" stroke="none"/>
</g>
<g fill="rgb(62,84,150)" stroke-miterlimit="1.45" stroke-width="3" transform="matrix(1,0,0,1,-1143,-485)" stroke="rgb(62,84,150)">
<path fill="none" d="M1332.0164 712.6913 L1312.3425 594.8534" clip-path="url(#clipPath2)"/>
<path d="M0 0 L-12 -5 L-9 0 L-12 5 Z" clip-path="url(#clipPath78)" transform="matrix(-0.2205,-1.3207,1.3207,-0.2205,1310.358,582.967)" stroke="none"/>
</g>
<g fill="rgb(62,84,150)" stroke-miterlimit="1.45" stroke-width="3" transform="matrix(1,0,0,1,-1143,-485)" stroke="rgb(62,84,150)">
<path fill="none" d="M1340.095 1128.7023 L1203.0706 1205.7266" clip-path="url(#clipPath2)"/>
<path d="M0 0 L-12 -5 L-9 0 L-12 5 Z" clip-path="url(#clipPath79)" transform="matrix(-1.1672,0.6561,-0.6561,-1.1672,1192.5657,1211.6316)" stroke="none"/>
</g>
<g fill="rgb(62,84,150)" stroke-miterlimit="1.45" stroke-width="3" transform="matrix(1,0,0,1,-1143,-485)" stroke="rgb(62,84,150)">
<path fill="none" d="M1437.3716 882.1633 L1550.9943 777.6837" clip-path="url(#clipPath2)"/>
<path d="M0 0 L-12 -5 L-9 0 L-12 5 Z" clip-path="url(#clipPath80)" transform="matrix(0.9856,-0.9063,0.9063,0.9856,1559.8649,769.5268)" stroke="none"/>
</g>
<g fill="rgb(62,84,150)" stroke-miterlimit="1.45" stroke-width="3" transform="matrix(1,0,0,1,-1143,-485)" stroke="rgb(62,84,150)">
<path fill="none" d="M1565.2732 775.4218 L1451.6505 879.9014" clip-path="url(#clipPath2)"/>
<path d="M0 0 L-12 -5 L-9 0 L-12 5 Z" clip-path="url(#clipPath81)" transform="matrix(-0.9856,0.9063,-0.9063,-0.9856,1442.7799,888.0582)" stroke="none"/>
</g>
<g fill="rgb(62,84,150)" stroke-miterlimit="1.45" stroke-width="3" transform="matrix(1,0,0,1,-1143,-485)" stroke="rgb(62,84,150)">
<path fill="none" d="M1183.5297 671.1761 L1314.3884 714.1996" clip-path="url(#clipPath2)"/>
<path d="M0 0 L-12 -5 L-9 0 L-12 5 Z" clip-path="url(#clipPath82)" transform="matrix(1.272,0.4182,-0.4182,1.272,1325.8364,717.9635)" stroke="none"/>
</g>
<g fill="rgb(62,84,150)" stroke-miterlimit="1.45" stroke-width="3" transform="matrix(1,0,0,1,-1143,-485)" stroke="rgb(62,84,150)">
<path fill="none" d="M1429.4092 550.8527 L1447.6952 650.0347" clip-path="url(#clipPath2)"/>
<path d="M0 0 L-12 -5 L-9 0 L-12 5 Z" clip-path="url(#clipPath83)" transform="matrix(0.2428,1.3168,-1.3168,0.2428,1449.8801,661.8858)" stroke="none"/>
</g>
<g fill="rgb(62,84,150)" stroke-miterlimit="1.45" stroke-width="3" transform="matrix(1,0,0,1,-1143,-485)" stroke="rgb(62,84,150)">
<path fill="none" d="M1442.0168 663.3588 L1423.731 564.1768" clip-path="url(#clipPath2)"/>
<path d="M0 0 L-12 -5 L-9 0 L-12 5 Z" clip-path="url(#clipPath84)" transform="matrix(-0.2428,-1.3168,1.3168,-0.2428,1421.546,552.3257)" stroke="none"/>
</g>
<g fill="rgb(62,84,150)" stroke-miterlimit="1.45" stroke-width="3" transform="matrix(1,0,0,1,-1143,-485)" stroke="rgb(62,84,150)">
<path fill="none" d="M1557.2207 864.8239 L1478.2378 953.5067" clip-path="url(#clipPath2)"/>
<path d="M0 0 L-12 -5 L-9 0 L-12 5 Z" clip-path="url(#clipPath85)" transform="matrix(-0.8905,0.9999,-0.9999,-0.8905,1470.2229,962.5059)" stroke="none"/>
</g>
<g fill="rgb(62,84,150)" stroke-miterlimit="1.45" stroke-width="3" transform="matrix(1,0,0,1,-1143,-485)" stroke="rgb(62,84,150)">
<path fill="none" d="M1325.7268 573.9456 L1430.3392 657.2093" clip-path="url(#clipPath2)"/>
<path d="M0 0 L-12 -5 L-9 0 L-12 5 Z" clip-path="url(#clipPath86)" transform="matrix(1.0476,0.8339,-0.8339,1.0476,1439.7681,664.7139)" stroke="none"/>
</g>
<g fill="rgb(62,84,150)" stroke-miterlimit="1.45" stroke-width="3" transform="matrix(1,0,0,1,-1143,-485)" stroke="rgb(62,84,150)">
<path fill="none" d="M1299.8628 828.888 L1407.2303 879.9026" clip-path="url(#clipPath2)"/>
<path d="M0 0 L-12 -5 L-9 0 L-12 5 Z" clip-path="url(#clipPath87)" transform="matrix(1.2094,0.5746,-0.5746,1.2094,1418.115,885.0743)" stroke="none"/>
</g>
<g fill="rgb(62,84,150)" stroke-miterlimit="1.45" stroke-width="3" transform="matrix(1,0,0,1,-1143,-485)" stroke="rgb(62,84,150)">
<path fill="none" d="M1323.3719 725.5745 L1192.5133 682.551" clip-path="url(#clipPath2)"/>
<path d="M0 0 L-12 -5 L-9 0 L-12 5 Z" clip-path="url(#clipPath88)" transform="matrix(-1.272,-0.4182,0.4182,-1.272,1181.0653,678.7872)" stroke="none"/>
</g>
<g fill="rgb(62,84,150)" stroke-miterlimit="1.45" stroke-width="3" transform="matrix(1,0,0,1,-1143,-485)" stroke="rgb(62,84,150)">
<path fill="none" d="M1414.6512 892.2857 L1307.2837 841.2711" clip-path="url(#clipPath2)"/>
<path d="M0 0 L-12 -5 L-9 0 L-12 5 Z" clip-path="url(#clipPath89)" transform="matrix(-1.2094,-0.5746,0.5746,-1.2094,1296.399,836.0993)" stroke="none"/>
</g>
<g fill="rgb(62,84,150)" stroke-miterlimit="1.45" stroke-width="3" transform="matrix(1,0,0,1,-1143,-485)" stroke="rgb(62,84,150)">
<path fill="none" d="M1283.1863 1075.7091 L1329.5939 1101.6963" clip-path="url(#clipPath2)"/>
<path d="M0 0 L-12 -5 L-9 0 L-12 5 Z" clip-path="url(#clipPath90)" transform="matrix(1.1683,0.6542,-0.6542,1.1683,1340.1084,1107.5842)" stroke="none"/>
</g>
<g fill="rgb(62,84,150)" stroke-miterlimit="1.45" stroke-width="3" transform="matrix(1,0,0,1,-1143,-485)" stroke="rgb(62,84,150)">
<path fill="none" d="M1336.1571 1114.5404 L1289.7494 1088.5533" clip-path="url(#clipPath2)"/>
<path d="M0 0 L-12 -5 L-9 0 L-12 5 Z" clip-path="url(#clipPath91)" transform="matrix(-1.1683,-0.6542,0.6542,-1.1683,1279.2349,1082.6655)" stroke="none"/>
</g>
<g fill="rgb(62,84,150)" stroke-miterlimit="1.45" stroke-width="3" transform="matrix(1,0,0,1,-1143,-485)" stroke="rgb(62,84,150)">
<path fill="none" d="M1434.7681 670.959 L1330.1556 587.6953" clip-path="url(#clipPath2)"/>
<path d="M0 0 L-12 -5 L-9 0 L-12 5 Z" clip-path="url(#clipPath92)" transform="matrix(-1.0476,-0.8339,0.8339,-1.0476,1320.7268,580.1906)" stroke="none"/>
</g>
<g fill="rgb(62,84,150)" stroke-miterlimit="1.45" stroke-width="3" transform="matrix(1,0,0,1,-1143,-485)" stroke="rgb(62,84,150)">
<path fill="none" d="M1568.1852 838.6549 L1571.4178 789.6909" clip-path="url(#clipPath2)"/>
<path d="M0 0 L-12 -5 L-9 0 L-12 5 Z" clip-path="url(#clipPath93)" transform="matrix(0.0882,-1.3361,1.3361,0.0882,1572.2117,777.6663)" stroke="none"/>
</g>
<g fill="rgb(62,84,150)" stroke-miterlimit="1.45" stroke-width="3" transform="matrix(1,0,0,1,-1143,-485)" stroke="rgb(62,84,150)">
<path fill="none" d="M1260.5721 1084.7969 L1192.4469 1192.3895" clip-path="url(#clipPath2)"/>
<path d="M0 0 L-12 -5 L-9 0 L-12 5 Z" clip-path="url(#clipPath94)" transform="matrix(-0.7163,1.1313,-1.1313,-0.7163,1186.0002,1202.571)" stroke="none"/>
</g>
<g transform="matrix(1,0,0,1,-1143,-485)" fill-opacity="0.3647" fill="rgb(229,211,34)" stroke="rgb(229,211,34)" stroke-width="3" stroke-opacity="0.3647" stroke-miterlimit="1.45">
<path fill="none" d="M1444.3801 893.4946 L1775.615 862.6329" clip-path="url(#clipPath2)"/>
<path d="M0 0 L-12 -5 L-9 0 L-12 5 Z" clip-path="url(#clipPath95)" transform="matrix(1.3332,-0.1242,0.1242,1.3332,1787.6139,861.5149)" stroke="none"/>
</g>
<g transform="matrix(1,0,0,1,-1143,-485)" fill-opacity="0.3647" fill="rgb(229,211,34)" stroke="rgb(229,211,34)" stroke-width="3" stroke-opacity="0.3647" stroke-miterlimit="1.45">
<path fill="none" d="M1442.3406 887.2247 L1707.2589 729.8331" clip-path="url(#clipPath2)"/>
<path d="M0 0 L-12 -5 L-9 0 L-12 5 Z" clip-path="url(#clipPath96)" transform="matrix(1.1511,-0.6839,0.6839,1.1511,1717.6193,723.6779)" stroke="none"/>
</g>
<g fill="rgb(174,174,174)" transform="matrix(1,0,0,1,-1143,-485)" stroke="rgb(174,174,174)">
<circle r="15" clip-path="url(#clipPath2)" cx="1730.5151" cy="716.0163" stroke="none"/>
</g>
<g fill="rgb(51,51,51)" stroke-miterlimit="1.45" transform="matrix(1,0,0,1,-1143,-485)" stroke-linecap="butt" stroke="rgb(51,51,51)">
<circle fill="none" r="15" clip-path="url(#clipPath2)" cx="1730.5151" cy="716.0163"/>
</g>
<g fill="rgb(110,110,110)" transform="matrix(1,0,0,1,-1143,-485)" stroke="rgb(110,110,110)">
<circle r="15" clip-path="url(#clipPath2)" cx="1350.7469" cy="1118.1259" stroke="none"/>
</g>
<g fill="rgb(51,51,51)" stroke-miterlimit="1.45" transform="matrix(1,0,0,1,-1143,-485)" stroke-linecap="butt" stroke="rgb(51,51,51)">
<circle fill="none" r="15" clip-path="url(#clipPath2)" cx="1350.7469" cy="1118.1259"/>
</g>
<g fill="rgb(20,20,20)" transform="matrix(1,0,0,1,-1143,-485)" stroke="rgb(20,20,20)">
<circle r="15" clip-path="url(#clipPath2)" cx="1338.3414" cy="726.2855" stroke="none"/>
</g>
<g fill="rgb(51,51,51)" stroke-miterlimit="1.45" transform="matrix(1,0,0,1,-1143,-485)" stroke-linecap="butt" stroke="rgb(51,51,51)">
<circle fill="none" r="15" clip-path="url(#clipPath2)" cx="1338.3414" cy="726.2855"/>
</g>
<g fill="rgb(105,105,105)" transform="matrix(1,0,0,1,-1143,-485)" stroke="rgb(105,105,105)">
<circle r="15" clip-path="url(#clipPath2)" cx="1728.3585" cy="913.7078" stroke="none"/>
</g>
<g fill="rgb(51,51,51)" stroke-miterlimit="1.45" transform="matrix(1,0,0,1,-1143,-485)" stroke-linecap="butt" stroke="rgb(51,51,51)">
<circle fill="none" r="15" clip-path="url(#clipPath2)" cx="1728.3585" cy="913.7078"/>
</g>
<g fill="rgb(249,249,249)" transform="matrix(1,0,0,1,-1143,-485)" stroke="rgb(249,249,249)">
<circle r="15" clip-path="url(#clipPath2)" cx="1554.9409" cy="1013.3746" stroke="none"/>
</g>
<g fill="rgb(51,51,51)" stroke-miterlimit="1.45" transform="matrix(1,0,0,1,-1143,-485)" stroke-linecap="butt" stroke="rgb(51,51,51)">
<circle fill="none" r="15" clip-path="url(#clipPath2)" cx="1554.9409" cy="1013.3746"/>
</g>
<g fill="rgb(77,77,77)" transform="matrix(1,0,0,1,-1143,-485)" stroke="rgb(77,77,77)">
<circle r="15" clip-path="url(#clipPath2)" cx="1448.568" cy="676.8304" stroke="none"/>
</g>
<g fill="rgb(51,51,51)" stroke-miterlimit="1.45" transform="matrix(1,0,0,1,-1143,-485)" stroke-linecap="butt" stroke="rgb(51,51,51)">
<circle fill="none" r="15" clip-path="url(#clipPath2)" cx="1448.568" cy="676.8304"/>
</g>
<g fill="rgb(178,178,178)" transform="matrix(1,0,0,1,-1143,-485)" stroke="rgb(178,178,178)">
<circle r="15" clip-path="url(#clipPath2)" cx="1567.197" cy="853.6223" stroke="none"/>
</g>
<g fill="rgb(51,51,51)" stroke-miterlimit="1.45" transform="matrix(1,0,0,1,-1143,-485)" stroke-linecap="butt" stroke="rgb(51,51,51)">
<circle fill="none" r="15" clip-path="url(#clipPath2)" cx="1567.197" cy="853.6223"/>
</g>
<g fill="rgb(249,249,249)" transform="matrix(1,0,0,1,-1143,-485)" stroke="rgb(249,249,249)">
<circle r="15" clip-path="url(#clipPath2)" cx="1544.5013" cy="669.0502" stroke="none"/>
</g>
<g fill="rgb(51,51,51)" stroke-miterlimit="1.45" transform="matrix(1,0,0,1,-1143,-485)" stroke-linecap="butt" stroke="rgb(51,51,51)">
<circle fill="none" r="15" clip-path="url(#clipPath2)" cx="1544.5013" cy="669.0502"/>
</g>
<g fill="rgb(20,20,20)" transform="matrix(1,0,0,1,-1143,-485)" stroke="rgb(20,20,20)">
<circle r="15" clip-path="url(#clipPath2)" cx="1311.9269" cy="568.0742" stroke="none"/>
</g>
<g fill="rgb(51,51,51)" stroke-miterlimit="1.45" transform="matrix(1,0,0,1,-1143,-485)" stroke-linecap="butt" stroke="rgb(51,51,51)">
<circle fill="none" r="15" clip-path="url(#clipPath2)" cx="1311.9269" cy="568.0742"/>
</g>
<g fill="rgb(158,158,158)" transform="matrix(1,0,0,1,-1143,-485)" stroke="rgb(158,158,158)">
<circle r="15" clip-path="url(#clipPath2)" cx="1268.5965" cy="1072.1237" stroke="none"/>
</g>
<g fill="rgb(51,51,51)" stroke-miterlimit="1.45" transform="matrix(1,0,0,1,-1143,-485)" stroke-linecap="butt" stroke="rgb(51,51,51)">
<circle fill="none" r="15" clip-path="url(#clipPath2)" cx="1268.5965" cy="1072.1237"/>
</g>
<g fill="rgb(178,178,178)" transform="matrix(1,0,0,1,-1143,-485)" stroke="rgb(178,178,178)">
<circle r="15" clip-path="url(#clipPath2)" cx="1573.1999" cy="762.6988" stroke="none"/>
</g>
<g fill="rgb(51,51,51)" stroke-miterlimit="1.45" transform="matrix(1,0,0,1,-1143,-485)" stroke-linecap="butt" stroke="rgb(51,51,51)">
<circle fill="none" r="15" clip-path="url(#clipPath2)" cx="1573.1999" cy="762.6988"/>
</g>
<g fill="rgb(77,77,77)" transform="matrix(1,0,0,1,-1143,-485)" stroke="rgb(77,77,77)">
<circle r="15" clip-path="url(#clipPath2)" cx="1422.8581" cy="537.3811" stroke="none"/>
</g>
<g fill="rgb(51,51,51)" stroke-miterlimit="1.45" transform="matrix(1,0,0,1,-1143,-485)" stroke-linecap="butt" stroke="rgb(51,51,51)">
<circle fill="none" r="15" clip-path="url(#clipPath2)" cx="1422.8581" cy="537.3811"/>
</g>
<g fill="rgb(249,249,249)" transform="matrix(1,0,0,1,-1143,-485)" stroke="rgb(249,249,249)">
<circle r="15" clip-path="url(#clipPath2)" cx="1177.9758" cy="1215.2442" stroke="none"/>
</g>
<g fill="rgb(51,51,51)" stroke-miterlimit="1.45" transform="matrix(1,0,0,1,-1143,-485)" stroke-linecap="butt" stroke="rgb(51,51,51)">
<circle fill="none" r="15" clip-path="url(#clipPath2)" cx="1177.9758" cy="1215.2442"/>
</g>
<g fill="rgb(124,124,124)" transform="matrix(1,0,0,1,-1143,-485)" stroke="rgb(124,124,124)">
<circle r="15" clip-path="url(#clipPath2)" cx="1460.2466" cy="973.7073" stroke="none"/>
</g>
<g fill="rgb(51,51,51)" stroke-miterlimit="1.45" transform="matrix(1,0,0,1,-1143,-485)" stroke-linecap="butt" stroke="rgb(51,51,51)">
<circle fill="none" r="15" clip-path="url(#clipPath2)" cx="1460.2466" cy="973.7073"/>
</g>
<g fill="rgb(220,13,13)" transform="matrix(1,0,0,1,-1143,-485)" stroke="rgb(220,13,13)">
<circle r="15" clip-path="url(#clipPath2)" cx="1429.4449" cy="894.8862" stroke="none"/>
</g>
<g fill="rgb(51,51,51)" stroke-miterlimit="1.45" transform="matrix(1,0,0,1,-1143,-485)" stroke-linecap="butt" stroke="rgb(51,51,51)">
<circle fill="none" r="15" clip-path="url(#clipPath2)" cx="1429.4449" cy="894.8862"/>
</g>
<g fill="rgb(158,158,158)" transform="matrix(1,0,0,1,-1143,-485)" stroke="rgb(158,158,158)">
<circle r="15" clip-path="url(#clipPath2)" cx="1802.5491" cy="860.1234" stroke="none"/>
</g>
<g fill="rgb(51,51,51)" stroke-miterlimit="1.45" transform="matrix(1,0,0,1,-1143,-485)" stroke-linecap="butt" stroke="rgb(51,51,51)">
<circle fill="none" r="15" clip-path="url(#clipPath2)" cx="1802.5491" cy="860.1234"/>
</g>
<g fill="rgb(20,20,20)" transform="matrix(1,0,0,1,-1143,-485)" stroke="rgb(20,20,20)">
<circle r="15" clip-path="url(#clipPath2)" cx="1561.8625" cy="510.2243" stroke="none"/>
</g>
<g fill="rgb(51,51,51)" stroke-miterlimit="1.45" transform="matrix(1,0,0,1,-1143,-485)" stroke-linecap="butt" stroke="rgb(51,51,51)">
<circle fill="none" r="15" clip-path="url(#clipPath2)" cx="1561.8625" cy="510.2243"/>
</g>
<g fill="rgb(174,174,174)" transform="matrix(1,0,0,1,-1143,-485)" stroke="rgb(174,174,174)">
<circle r="15" clip-path="url(#clipPath2)" cx="1168.5603" cy="670.4651" stroke="none"/>
</g>
<g fill="rgb(51,51,51)" stroke-miterlimit="1.45" transform="matrix(1,0,0,1,-1143,-485)" stroke-linecap="butt" stroke="rgb(51,51,51)">
<circle fill="none" r="15" clip-path="url(#clipPath2)" cx="1168.5603" cy="670.4651"/>
</g>
<g fill="rgb(178,178,178)" transform="matrix(1,0,0,1,-1143,-485)" stroke="rgb(178,178,178)">
<circle r="15" clip-path="url(#clipPath2)" cx="1285.0692" cy="826.2875" stroke="none"/>
</g>
<g fill="rgb(51,51,51)" stroke-miterlimit="1.45" transform="matrix(1,0,0,1,-1143,-485)" stroke-linecap="butt" stroke="rgb(51,51,51)">
<circle fill="none" r="15" clip-path="url(#clipPath2)" cx="1285.0692" cy="826.2875"/>
</g>
</g>
</svg>
