<?xml version="1.0" encoding="UTF-8"?>
<svg xmlns:xlink="http://www.w3.org/1999/xlink" xmlns="http://www.w3.org/2000/svg" fill-opacity="1" color-rendering="auto" color-interpolation="auto" text-rendering="auto" stroke="black" stroke-linecap="square" width="430" stroke-miterlimit="10" shape-rendering="auto" stroke-opacity="1" fill="black" stroke-dasharray="none" font-weight="normal" stroke-width="1" height="514" font-family="'Dialog'" font-style="normal" stroke-linejoin="miter" font-size="12" stroke-dashoffset="0" image-rendering="auto">
<!--Generated by ySVG-->
<defs id="genericDefs"/>
<g>
<defs id="defs1">
<clipPath clipPathUnits="userSpaceOnUse" id="clipPath1">
<path d="M0 0 L430 0 L430 514 L0 514 L0 0 Z"/>
</clipPath>
<clipPath clipPathUnits="userSpaceOnUse" id="clipPath2">
<path d="M814 497 L1244 497 L1244 1011 L814 1011 L814 497 Z"/>
</clipPath>
<clipPath clipPathUnits="userSpaceOnUse" id="clipPath3">
<path d="M-381.5126 156.28 L-317.5672 -158.4284 L58.6192 -81.9914 L-5.3262 232.7171 L-381.5126 156.28 Z"/>
</clipPath>
<clipPath clipPathUnits="userSpaceOnUse" id="clipPath4">
<path d="M249.1775 -150.3054 L185.2321 164.4031 L-190.9543 87.966 L-127.0089 -226.7424 L249.1775 -150.3054 Z"/>
</clipPath>
<clipPath clipPathUnits="userSpaceOnUse" id="clipPath5">
<path d="M-157.507 -146.6521 L157.6958 -85.1901 L84.2272 291.5873 L-230.9756 230.1252 L-157.507 -146.6521 Z"/>
</clipPath>
<clipPath clipPathUnits="userSpaceOnUse" id="clipPath6">
<path d="M-234.2264 -146.038 L68.4407 -38.6926 L-59.8744 323.1002 L-362.5415 215.7548 L-234.2264 -146.038 Z"/>
</clipPath>
<clipPath clipPathUnits="userSpaceOnUse" id="clipPath7">
<path d="M-6.3534 -227.4396 L44.6607 89.6218 L-334.3383 150.6015 L-385.3525 -166.4599 L-6.3534 -227.4396 Z"/>
</clipPath>
<clipPath clipPathUnits="userSpaceOnUse" id="clipPath8">
<path d="M-459.4287 55.9801 L-285.2907 -213.8465 L37.2461 -5.6908 L-136.8919 264.1357 L-459.4287 55.9801 Z"/>
</clipPath>
<clipPath clipPathUnits="userSpaceOnUse" id="clipPath9">
<path d="M-79.4484 118.7612 L-278.897 -132.9343 L21.9669 -371.345 L221.4156 -119.6495 L-79.4484 118.7612 Z"/>
</clipPath>
<clipPath clipPathUnits="userSpaceOnUse" id="clipPath10">
<path d="M-21.9 -112.7866 L177.5487 138.9089 L-123.3152 377.3197 L-322.7639 125.6243 L-21.9 -112.7866 Z"/>
</clipPath>
<clipPath clipPathUnits="userSpaceOnUse" id="clipPath11">
<path d="M131.2765 -188.5524 L117.1313 132.2752 L-266.3695 115.3668 L-252.2244 -205.4607 L131.2765 -188.5524 Z"/>
</clipPath>
<clipPath clipPathUnits="userSpaceOnUse" id="clipPath12">
<path d="M92.9058 124.6922 L-208.2093 236.3172 L-341.6401 -123.6203 L-40.525 -235.2453 L92.9058 124.6922 Z"/>
</clipPath>
<clipPath clipPathUnits="userSpaceOnUse" id="clipPath13">
<path d="M-76.9429 -271.6484 L79.7454 8.6714 L-255.3345 195.9686 L-412.0228 -84.3512 L-76.9429 -271.6484 Z"/>
</clipPath>
<clipPath clipPathUnits="userSpaceOnUse" id="clipPath14">
<path d="M-262.5615 77.8354 L-107.2828 -203.2676 L228.7335 -17.6554 L73.4547 263.4477 L-262.5615 77.8354 Z"/>
</clipPath>
<clipPath clipPathUnits="userSpaceOnUse" id="clipPath15">
<path d="M104.9823 -71.8607 L-50.2964 209.2424 L-386.3126 23.6301 L-231.0339 -257.4729 L104.9823 -71.8607 Z"/>
</clipPath>
<clipPath clipPathUnits="userSpaceOnUse" id="clipPath16">
<path d="M27.1309 -279.9543 L243.9292 -43.0389 L-39.2674 216.1107 L-256.0656 -20.8047 L27.1309 -279.9543 Z"/>
</clipPath>
<clipPath clipPathUnits="userSpaceOnUse" id="clipPath17">
<path d="M-140.6158 285.9291 L-357.4143 49.0139 L-74.218 -210.136 L142.5805 26.7792 L-140.6158 285.9291 Z"/>
</clipPath>
<clipPath clipPathUnits="userSpaceOnUse" id="clipPath18">
<path d="M-194.0277 -196.0423 L75.446 -21.3588 L-133.3617 300.7563 L-402.8354 126.0728 L-194.0277 -196.0423 Z"/>
</clipPath>
<clipPath clipPathUnits="userSpaceOnUse" id="clipPath19">
<path d="M112.5574 202.0171 L-156.9162 27.3334 L51.8917 -294.7815 L321.3653 -120.0978 L112.5574 202.0171 Z"/>
</clipPath>
<clipPath clipPathUnits="userSpaceOnUse" id="clipPath20">
<path d="M-209.9361 32.6716 L41.8446 -166.6695 L280.1268 134.2963 L28.3461 333.6374 L-209.9361 32.6716 Z"/>
</clipPath>
<clipPath clipPathUnits="userSpaceOnUse" id="clipPath21">
<path d="M45.3862 8.2926 L-185.2545 231.7547 L-452.3695 -43.9414 L-221.7288 -267.4034 L45.3862 8.2926 Z"/>
</clipPath>
<clipPath clipPathUnits="userSpaceOnUse" id="clipPath22">
<path d="M-245.1447 -118.7176 L55.9704 -230.3426 L189.4012 129.595 L-111.7139 241.2199 L-245.1447 -118.7176 Z"/>
</clipPath>
</defs>
<g fill="rgb(255,255,255)" fill-opacity="0" transform="scale(1,1) translate(-814,-497)" stroke-opacity="0" stroke="rgb(255,255,255)">
<rect x="814" width="430" height="514" y="497" clip-path="url(#clipPath2)" stroke="none"/>
</g>
<g transform="matrix(1,0,0,1,-814,-497)" fill-opacity="0.6196" fill="rgb(100,191,207)" stroke="rgb(100,191,207)" stroke-width="3" stroke-opacity="0.6196" stroke-miterlimit="1.45">
<path fill="none" d="M1085.5033 782.3052 L1118.3849 944.1326" clip-path="url(#clipPath2)"/>
<path d="M0 0 L-12 -5 L-9 0 L-12 5 Z" clip-path="url(#clipPath3)" transform="matrix(0.2666,1.3122,-1.3122,0.2666,1120.7844,955.9421)" stroke="none"/>
</g>
<g transform="matrix(1,0,0,1,-814,-497)" fill-opacity="0.6196" fill="rgb(100,191,207)" stroke="rgb(100,191,207)" stroke-width="3" stroke-opacity="0.6196" stroke-miterlimit="1.45">
<path fill="none" d="M1112.9427 957.5258 L1080.0612 795.6984" clip-path="url(#clipPath2)"/>
<path d="M0 0 L-12 -5 L-9 0 L-12 5 Z" clip-path="url(#clipPath4)" transform="matrix(-0.2666,-1.3122,1.3122,-0.2666,1077.6616,783.8889)" stroke="none"/>
</g>
<g transform="matrix(1,0,0,1,-814,-497)" fill-opacity="0.6196" fill="rgb(100,191,207)" stroke="rgb(100,191,207)" stroke-width="3" stroke-opacity="0.6196" stroke-miterlimit="1.45">
<path fill="none" d="M875.1525 685.1387 L1046.7543 651.6777" clip-path="url(#clipPath2)"/>
<path d="M0 0 L-12 -5 L-9 0 L-12 5 Z" clip-path="url(#clipPath5)" transform="matrix(1.3142,-0.2563,0.2563,1.3142,1058.5824,649.3713)" stroke="none"/>
</g>
<g transform="matrix(1,0,0,1,-814,-497)" fill-opacity="0.6196" fill="rgb(100,191,207)" stroke="rgb(100,191,207)" stroke-width="3" stroke-opacity="0.6196" stroke-miterlimit="1.45">
<path fill="none" d="M874.567 682.9955 L1163.5905 580.4891" clip-path="url(#clipPath2)"/>
<path d="M0 0 L-12 -5 L-9 0 L-12 5 Z" clip-path="url(#clipPath6)" transform="matrix(1.262,-0.4476,0.4476,1.262,1174.9481,576.461)" stroke="none"/>
</g>
<g fill="rgb(62,84,150)" stroke-miterlimit="1.45" stroke-width="3" transform="matrix(1,0,0,1,-814,-497)" stroke="rgb(62,84,150)">
<path fill="none" d="M1081.0856 754.115 L1114.1079 548.8757" clip-path="url(#clipPath2)"/>
<path d="M0 0 L-12 -5 L-9 0 L-12 5 Z" clip-path="url(#clipPath7)" transform="matrix(0.2127,-1.322,1.322,0.2127,1116.0222,536.9778)" stroke="none"/>
</g>
<g fill="rgb(62,84,150)" stroke-miterlimit="1.45" stroke-width="3" transform="matrix(1,0,0,1,-814,-497)" stroke="rgb(62,84,150)">
<path fill="none" d="M1086.8365 781.5278 L1204.02 963.1033" clip-path="url(#clipPath2)"/>
<path d="M0 0 L-12 -5 L-9 0 L-12 5 Z" clip-path="url(#clipPath8)" transform="matrix(0.7261,1.125,-1.125,0.7261,1210.5546,973.2286)" stroke="none"/>
</g>
<g fill="rgb(62,84,150)" stroke-miterlimit="1.45" stroke-width="3" transform="matrix(1,0,0,1,-814,-497)" stroke="rgb(62,84,150)">
<path fill="none" d="M956.8791 572.7353 L880.048 669.6927" clip-path="url(#clipPath2)"/>
<path d="M0 0 L-12 -5 L-9 0 L-12 5 Z" clip-path="url(#clipPath9)" transform="matrix(-0.8316,1.0494,-1.0494,-0.8316,872.5637,679.1377)" stroke="none"/>
</g>
<g fill="rgb(62,84,150)" stroke-miterlimit="1.45" stroke-width="3" transform="matrix(1,0,0,1,-814,-497)" stroke="rgb(62,84,150)">
<path fill="none" d="M866.2591 674.2126 L943.0902 577.2552" clip-path="url(#clipPath2)"/>
<path d="M0 0 L-12 -5 L-9 0 L-12 5 Z" clip-path="url(#clipPath10)" transform="matrix(0.8316,-1.0494,1.0494,0.8316,950.5746,567.8102)" stroke="none"/>
</g>
<g fill="rgb(62,84,150)" stroke-miterlimit="1.45" stroke-width="3" transform="matrix(1,0,0,1,-814,-497)" stroke="rgb(62,84,150)">
<path fill="none" d="M1078.042 753.9391 L1074.4966 673.5251" clip-path="url(#clipPath2)"/>
<path d="M0 0 L-12 -5 L-9 0 L-12 5 Z" clip-path="url(#clipPath11)" transform="matrix(-0.059,-1.3377,1.3377,-0.059,1073.9658,661.486)" stroke="none"/>
</g>
<g fill="rgb(62,84,150)" stroke-miterlimit="1.45" stroke-width="3" transform="matrix(1,0,0,1,-814,-497)" stroke="rgb(62,84,150)">
<path fill="none" d="M1063.7502 767.6475 L883.908 700.979" clip-path="url(#clipPath2)"/>
<path d="M0 0 L-12 -5 L-9 0 L-12 5 Z" clip-path="url(#clipPath12)" transform="matrix(-1.2555,-0.4654,0.4654,-1.2555,872.6085,696.7902)" stroke="none"/>
</g>
<g fill="rgb(62,84,150)" stroke-miterlimit="1.45" stroke-width="3" transform="matrix(1,0,0,1,-814,-497)" stroke="rgb(62,84,150)">
<path fill="none" d="M1086.0215 755.8311 L1175.8868 595.0594" clip-path="url(#clipPath2)"/>
<path d="M0 0 L-12 -5 L-9 0 L-12 5 Z" clip-path="url(#clipPath13)" transform="matrix(0.6533,-1.1688,1.1688,0.6533,1181.7666,584.5403)" stroke="none"/>
</g>
<g fill="rgb(62,84,150)" stroke-miterlimit="1.45" stroke-width="3" transform="matrix(1,0,0,1,-814,-497)" stroke="rgb(62,84,150)">
<path fill="none" d="M973.1904 569.6414 L1069.3909 743.7944" clip-path="url(#clipPath2)"/>
<path d="M0 0 L-12 -5 L-9 0 L-12 5 Z" clip-path="url(#clipPath14)" transform="matrix(0.6474,1.1721,-1.1721,0.6474,1075.2178,754.3429)" stroke="none"/>
</g>
<g fill="rgb(62,84,150)" stroke-miterlimit="1.45" stroke-width="3" transform="matrix(1,0,0,1,-814,-497)" stroke="rgb(62,84,150)">
<path fill="none" d="M1068.2208 758.2215 L972.0203 584.0685" clip-path="url(#clipPath2)"/>
<path d="M0 0 L-12 -5 L-9 0 L-12 5 Z" clip-path="url(#clipPath15)" transform="matrix(-0.6474,-1.1721,1.1721,-0.6474,966.1934,573.52)" stroke="none"/>
</g>
<g transform="matrix(1,0,0,1,-814,-497)" fill-opacity="0.6196" fill="rgb(100,191,207)" stroke="rgb(100,191,207)" stroke-width="3" stroke-opacity="0.6196" stroke-miterlimit="1.45">
<path fill="none" d="M963.4449 888.9521 L1057.8827 785.7513" clip-path="url(#clipPath2)"/>
<path d="M0 0 L-12 -5 L-9 0 L-12 5 Z" clip-path="url(#clipPath16)" transform="matrix(0.9039,-0.9878,0.9878,0.9039,1066.0181,776.861)" stroke="none"/>
</g>
<g transform="matrix(1,0,0,1,-814,-497)" fill-opacity="0.6196" fill="rgb(100,191,207)" stroke="rgb(100,191,207)" stroke-width="3" stroke-opacity="0.6196" stroke-miterlimit="1.45">
<path fill="none" d="M1071.9099 782.2728 L977.472 885.4736" clip-path="url(#clipPath2)"/>
<path d="M0 0 L-12 -5 L-9 0 L-12 5 Z" clip-path="url(#clipPath17)" transform="matrix(-0.9039,0.9878,-0.9878,-0.9039,969.3366,894.3639)" stroke="none"/>
</g>
<g fill="rgb(62,84,150)" stroke-miterlimit="1.45" stroke-width="3" transform="matrix(1,0,0,1,-814,-497)" stroke="rgb(62,84,150)">
<path fill="none" d="M1083.2556 635.2832 L1164.6759 582.5034" clip-path="url(#clipPath2)"/>
<path d="M0 0 L-12 -5 L-9 0 L-12 5 Z" clip-path="url(#clipPath18)" transform="matrix(1.1236,-0.7283,0.7283,1.1236,1174.788,575.9483)" stroke="none"/>
</g>
<g fill="rgb(62,84,150)" stroke-miterlimit="1.45" stroke-width="3" transform="matrix(1,0,0,1,-814,-497)" stroke="rgb(62,84,150)">
<path fill="none" d="M1179.1348 582.6643 L1097.7146 635.4442" clip-path="url(#clipPath2)"/>
<path d="M0 0 L-12 -5 L-9 0 L-12 5 Z" clip-path="url(#clipPath19)" transform="matrix(-1.1236,0.7283,-0.7283,-1.1236,1087.6025,641.9992)" stroke="none"/>
</g>
<g fill="rgb(62,84,150)" stroke-miterlimit="1.45" stroke-width="3" transform="matrix(1,0,0,1,-814,-497)" stroke="rgb(62,84,150)">
<path fill="none" d="M974.4688 568.2494 L1052.0966 629.7092" clip-path="url(#clipPath2)"/>
<path d="M0 0 L-12 -5 L-9 0 L-12 5 Z" clip-path="url(#clipPath20)" transform="matrix(1.0498,0.8311,-0.8311,1.0498,1061.5447,637.1896)" stroke="none"/>
</g>
<g fill="rgb(62,84,150)" stroke-miterlimit="1.45" stroke-width="3" transform="matrix(1,0,0,1,-814,-497)" stroke="rgb(62,84,150)">
<path fill="none" d="M1067.9298 758.4869 L858.5742 555.6474" clip-path="url(#clipPath2)"/>
<path d="M0 0 L-12 -5 L-9 0 L-12 5 Z" clip-path="url(#clipPath21)" transform="matrix(-0.9617,-0.9317,0.9317,-0.9617,849.9193,547.2619)" stroke="none"/>
</g>
<g fill="rgb(62,84,150)" stroke-miterlimit="1.45" stroke-width="3" transform="matrix(1,0,0,1,-814,-497)" stroke="rgb(62,84,150)">
<path fill="none" d="M875.3823 689.2865 L1055.2246 755.955" clip-path="url(#clipPath2)"/>
<path d="M0 0 L-12 -5 L-9 0 L-12 5 Z" clip-path="url(#clipPath22)" transform="matrix(1.2555,0.4654,-0.4654,1.2555,1066.524,760.1438)" stroke="none"/>
</g>
<g fill="rgb(225,225,225)" transform="matrix(1,0,0,1,-814,-497)" stroke="rgb(225,225,225)">
<circle r="15" clip-path="url(#clipPath2)" cx="1118.405" cy="522.1683" stroke="none"/>
</g>
<g fill="rgb(51,51,51)" stroke-miterlimit="1.45" transform="matrix(1,0,0,1,-814,-497)" stroke-linecap="butt" stroke="rgb(51,51,51)">
<circle fill="none" r="15" clip-path="url(#clipPath2)" cx="1118.405" cy="522.1683"/>
</g>
<g fill="rgb(225,225,225)" transform="matrix(1,0,0,1,-814,-497)" stroke="rgb(225,225,225)">
<circle r="15" clip-path="url(#clipPath2)" cx="1189.0854" cy="571.447" stroke="none"/>
</g>
<g fill="rgb(51,51,51)" stroke-miterlimit="1.45" transform="matrix(1,0,0,1,-814,-497)" stroke-linecap="butt" stroke="rgb(51,51,51)">
<circle fill="none" r="15" clip-path="url(#clipPath2)" cx="1189.0854" cy="571.447"/>
</g>
<g fill="rgb(225,225,225)" transform="matrix(1,0,0,1,-814,-497)" stroke="rgb(225,225,225)">
<circle r="15" clip-path="url(#clipPath2)" cx="1119.7434" cy="970.9065" stroke="none"/>
</g>
<g fill="rgb(51,51,51)" stroke-miterlimit="1.45" transform="matrix(1,0,0,1,-814,-497)" stroke-linecap="butt" stroke="rgb(51,51,51)">
<circle fill="none" r="15" clip-path="url(#clipPath2)" cx="1119.7434" cy="970.9065"/>
</g>
<g fill="rgb(225,225,225)" transform="matrix(1,0,0,1,-814,-497)" stroke="rgb(225,225,225)">
<circle r="15" clip-path="url(#clipPath2)" cx="1073.305" cy="646.5005" stroke="none"/>
</g>
<g fill="rgb(51,51,51)" stroke-miterlimit="1.45" transform="matrix(1,0,0,1,-814,-497)" stroke-linecap="butt" stroke="rgb(51,51,51)">
<circle fill="none" r="15" clip-path="url(#clipPath2)" cx="1073.305" cy="646.5005"/>
</g>
<g fill="rgb(204,204,204)" transform="matrix(1,0,0,1,-814,-497)" stroke="rgb(204,204,204)">
<circle r="15" clip-path="url(#clipPath2)" cx="860.4298" cy="688.0095" stroke="none"/>
</g>
<g fill="rgb(51,51,51)" stroke-miterlimit="1.45" transform="matrix(1,0,0,1,-814,-497)" stroke-linecap="butt" stroke="rgb(51,51,51)">
<circle fill="none" r="15" clip-path="url(#clipPath2)" cx="860.4298" cy="688.0095"/>
</g>
<g fill="rgb(15,15,15)" transform="matrix(1,0,0,1,-814,-497)" stroke="rgb(15,15,15)">
<circle r="15" clip-path="url(#clipPath2)" cx="1218.6883" cy="985.8319" stroke="none"/>
</g>
<g fill="rgb(51,51,51)" stroke-miterlimit="1.45" transform="matrix(1,0,0,1,-814,-497)" stroke-linecap="butt" stroke="rgb(51,51,51)">
<circle fill="none" r="15" clip-path="url(#clipPath2)" cx="1218.6883" cy="985.8319"/>
</g>
<g fill="rgb(220,13,13)" transform="matrix(1,0,0,1,-814,-497)" stroke="rgb(220,13,13)">
<circle r="15" clip-path="url(#clipPath2)" cx="1078.7027" cy="768.9245" stroke="none"/>
</g>
<g fill="rgb(51,51,51)" stroke-miterlimit="1.45" transform="matrix(1,0,0,1,-814,-497)" stroke-linecap="butt" stroke="rgb(51,51,51)">
<circle fill="none" r="15" clip-path="url(#clipPath2)" cx="1078.7027" cy="768.9245"/>
</g>
<g fill="rgb(15,15,15)" transform="matrix(1,0,0,1,-814,-497)" stroke="rgb(15,15,15)">
<circle r="15" clip-path="url(#clipPath2)" cx="839.1464" cy="536.8243" stroke="none"/>
</g>
<g fill="rgb(51,51,51)" stroke-miterlimit="1.45" transform="matrix(1,0,0,1,-814,-497)" stroke-linecap="butt" stroke="rgb(51,51,51)">
<circle fill="none" r="15" clip-path="url(#clipPath2)" cx="839.1464" cy="536.8243"/>
</g>
<g fill="rgb(225,225,225)" transform="matrix(1,0,0,1,-814,-497)" stroke="rgb(225,225,225)">
<circle r="15" clip-path="url(#clipPath2)" cx="962.7084" cy="558.9384" stroke="none"/>
</g>
<g fill="rgb(51,51,51)" stroke-miterlimit="1.45" transform="matrix(1,0,0,1,-814,-497)" stroke-linecap="butt" stroke="rgb(51,51,51)">
<circle fill="none" r="15" clip-path="url(#clipPath2)" cx="962.7084" cy="558.9384"/>
</g>
<g fill="rgb(225,225,225)" transform="matrix(1,0,0,1,-814,-497)" stroke="rgb(225,225,225)">
<circle r="15" clip-path="url(#clipPath2)" cx="956.6521" cy="902.3004" stroke="none"/>
</g>
<g fill="rgb(51,51,51)" stroke-miterlimit="1.45" transform="matrix(1,0,0,1,-814,-497)" stroke-linecap="butt" stroke="rgb(51,51,51)">
<circle fill="none" r="15" clip-path="url(#clipPath2)" cx="956.6521" cy="902.3004"/>
</g>
</g>
</svg>
